<svg xmlns="http://www.w3.org/2000/svg" width="680.592" height="688.399" viewBox="0 0 680.592 688.399">
  <g id="Hero" transform="translate(-0.001)">
    <path id="Path_681" data-name="Path 681" d="M260.33,72.55a4.961,4.961,0,0,0,.258,1.084C260.5,73.324,260.4,72.911,260.33,72.55Z" transform="translate(125.322 7.582)" fill="none"/>
    <path id="Path_682" data-name="Path 682" d="M262.06,57.577V57.56h0Z" transform="translate(188.958 41.504)" fill="none"/>
    <path id="Path_683" data-name="Path 683" d="M298.914,88.967h0V87.9h0A4.426,4.426,0,0,0,298.914,88.967Z" transform="translate(153.12 18.65)" fill="none"/>
    <path id="Path_684" data-name="Path 684" d="M265,82.81c.189.275.379.534.585.792A5.73,5.73,0,0,0,265,82.81Z" transform="translate(128.69 14.98)" fill="none"/>
    <path id="Path_685" data-name="Path 685" d="M260.232,65.24a4.325,4.325,0,0,1-.172.757C260.112,65.739,260.163,65.481,260.232,65.24Z" transform="translate(125.128 2.311)" fill="none"/>
    <path id="Path_686" data-name="Path 686" d="M260.571,64.13l-.241.723Z" transform="translate(125.322 1.511)" fill="none"/>
    <path id="Path_687" data-name="Path 687" d="M261.517,62.28l-.327.534Z" transform="translate(125.942 0.177)" fill="none"/>
    <path id="Path_688" data-name="Path 688" d="M261,63.15c-.1.207-.189.43-.293.637C260.813,63.58,260.9,63.357,261,63.15Z" transform="translate(125.596 0.804)" fill="none"/>
    <path id="Path_689" data-name="Path 689" d="M280.74,90.3Z" transform="translate(140.039 20.381)" fill="none"/>
    <path id="Path_690" data-name="Path 690" d="M263.26,60.63c-.207.155-.43.275-.62.447C262.829,60.905,263.053,60.785,263.26,60.63Z" transform="translate(126.988 -1.013)" fill="none"/>
    <path id="Path_691" data-name="Path 691" d="M262.123,61.52l-.293.361Z" transform="translate(126.404 -0.371)" fill="none"/>
    <path id="Path_692" data-name="Path 692" d="M298.79,96.682a53.135,53.135,0,0,0,.31-5.852h0a53.135,53.135,0,0,1-.31,5.852Z" transform="translate(153.054 20.763)" fill="none"/>
    <path id="Path_693" data-name="Path 693" d="M261.44,40.78Z" transform="translate(125.503 -15.326)" fill="none"/>
    <path id="Path_694" data-name="Path 694" d="M259.766,40.77Z" transform="translate(124.32 -15.333)" fill="none"/>
    <path id="Path_695" data-name="Path 695" d="M257.856,40.94h0a2.753,2.753,0,0,1-.4,0h.4Z" transform="translate(123.253 -15.21)" fill="none"/>
    <path id="Path_696" data-name="Path 696" d="M255.412,41.75c-.516.207-1.033.413-1.532.654C254.379,42.163,254.9,41.957,255.412,41.75Z" transform="translate(120.671 -14.626)" fill="none"/>
    <path id="Path_697" data-name="Path 697" d="M261.76,40.83l1.48.172Z" transform="translate(126.353 -15.29)" fill="none"/>
    <path id="Path_698" data-name="Path 698" d="M291.161,64.343q-.792-1.325-1.721-2.633h0A27.169,27.169,0,0,1,291.161,64.343Z" transform="translate(146.312 -0.234)" fill="none"/>
    <path id="Path_699" data-name="Path 699" d="M282.283,56.962h0c-.723-.723-1.446-1.428-2.2-2.134L298.5,44.14,280.08,54.828C280.837,55.516,281.56,56.239,282.283,56.962Z" transform="translate(139.563 -12.903)" fill="none"/>
    <path id="Path_700" data-name="Path 700" d="M284.615,55.067h0L283.6,54h0Z" transform="translate(142.101 -5.793)" fill="none"/>
    <path id="Path_701" data-name="Path 701" d="M283.279,53.58h0c-.361-.4-.74-.774-1.119-1.17h0C282.539,52.806,282.917,53.184,283.279,53.58Z" transform="translate(141.063 -6.94)" fill="none"/>
    <path id="Path_702" data-name="Path 702" d="M288.234,59.825h0l-.344-.465h0Z" transform="translate(145.194 -1.929)" fill="none"/>
    <path id="Path_703" data-name="Path 703" d="M286.638,57.66l-.568-.74h0Z" transform="translate(143.882 -3.688)" fill="none"/>
    <path id="Path_704" data-name="Path 704" d="M256.246,41.29l-.4.138Z" transform="translate(122.092 -14.958)" fill="none"/>
    <path id="Path_705" data-name="Path 705" d="M264.6,82.182l-.413-.6h0Z" transform="translate(128.106 14.093)" fill="none"/>
    <path id="Path_706" data-name="Path 706" d="M263.507,80.479,263.3,80.1h0Z" transform="translate(127.464 13.026)" fill="none"/>
    <path id="Path_707" data-name="Path 707" d="M262.837,79.267h0c-.1-.224-.207-.43-.327-.637h0Z" transform="translate(126.894 11.966)" fill="none"/>
    <path id="Path_708" data-name="Path 708" d="M266.756,84.978h0l-.826-1h0Z" transform="translate(129.36 15.824)" fill="none"/>
    <path id="Path_709" data-name="Path 709" d="M262.043,77.548l-.1-.258Z" transform="translate(126.483 11)" fill="none"/>
    <path id="Path_710" data-name="Path 710" d="M268.274,86.627h0c-.465-.482-.947-.981-1.394-1.5h0Q267.551,85.836,268.274,86.627Z" transform="translate(130.045 16.653)" fill="none"/>
    <path id="Path_711" data-name="Path 711" d="M259.992,71.291h0c-.1-1.05-.172-2.082-.172-3.081a17.63,17.63,0,0,0,.1,2.323C259.94,70.826,259.975,71.067,259.992,71.291Z" transform="translate(124.955 4.453)" fill="none"/>
    <path id="Path_712" data-name="Path 712" d="M261.441,76.3h0l-.241-.706h0Z" transform="translate(125.95 9.774)" fill="none"/>
    <path id="Path_713" data-name="Path 713" d="M260.305,72.6c-.1-.568-.206-1.136-.275-1.721A10.8,10.8,0,0,0,260.305,72.6Z" transform="translate(125.106 6.378)" fill="none"/>
    <path id="Path_714" data-name="Path 714" d="M268.933,87.151l-.723-.671h0Z" transform="translate(131.004 17.626)" fill="none"/>
    <path id="Path_715" data-name="Path 715" d="M259.976,66.5a1.942,1.942,0,0,1-.086.688C259.907,66.947,259.942,66.724,259.976,66.5Z" transform="translate(125.005 3.22)" fill="none"/>
    <path id="Path_716" data-name="Path 716" d="M260.985,74.928h0c-.1-.293-.189-.585-.275-.878h0C260.8,74.343,260.882,74.635,260.985,74.928Z" transform="translate(125.596 8.664)" fill="none"/>
    <path id="Path_717" data-name="Path 717" d="M274.61,90.57h0Z" transform="translate(135.532 20.575)" fill="none"/>
    <path id="Path_718" data-name="Path 718" d="M279.2,90.93h0Z" transform="translate(138.683 20.835)" fill="none"/>
    <path id="Path_719" data-name="Path 719" d="M278,91.08Z" transform="translate(138.063 20.943)" fill="none"/>
    <path id="Path_720" data-name="Path 720" d="M276.368,91.009l-.878-.189h0Z" transform="translate(136.253 20.756)" fill="none"/>
    <path id="Path_721" data-name="Path 721" d="M277.267,91.07h0Z" transform="translate(137.075 20.936)" fill="none"/>
    <path id="Path_722" data-name="Path 722" d="M280.159,90.66l-.379.138h0Z" transform="translate(139.347 20.64)" fill="none"/>
    <path id="Path_723" data-name="Path 723" d="M293.474,100.638c-.637-.293-1.291-.62-1.945-1s-1.342-.826-2.014-1.274l-.62-.465-1.342-1-.723-.6-1.188-1.05-.706-.654-.912-.895q-.688-.723-1.394-1.5c-.275-.31-.551-.6-.809-.912l-.826-1-.947-1.222c-.207-.258-.4-.534-.585-.792s-.706-1-1.05-1.515l-.413-.6c-.447-.723-.895-1.446-1.325-2.169l-.207-.379c-.361-.62-.706-1.256-1.033-1.893l-.31-.637c-.344-.671-.671-1.36-.964-2.048a1.719,1.719,0,0,1-.12-.258c-.344-.774-.654-1.549-.947-2.323a2.2,2.2,0,0,0-.241-.688q-.31-.843-.568-1.721c-.086-.275-.189-.568-.258-.861s-.293-1.015-.413-1.515-.189-.706-.258-1.067-.155-.774-.224-1.17-.224-1.119-.293-1.721-.138-1.015-.189-1.532v-.74c0-.792-.1-1.566-.1-2.341a14.807,14.807,0,0,1,.172-2.7c.861.379,1.721.809,2.616,1.308,11.669,6.747,21.1,23.079,21.066,36.486a22.53,22.53,0,0,1-.155,2.685h-.207Z" transform="translate(132.691 -1.179)" fill="none"/>
    <path id="Path_724" data-name="Path 724" d="M270.324,88.318c.43.344.878.688,1.325,1l.637.465c.671.447,1.342.895,2.014,1.274a33.388,33.388,0,0,1-5.37-3.924l.671.585Z" transform="translate(131.523 18.095)" fill="none"/>
    <path id="Path_725" data-name="Path 725" d="M274.477,90.649a27.012,27.012,0,0,1-2.427-1.239c.654.379,1.308.706,1.945,1.015Z" transform="translate(133.773 19.739)" fill="none"/>
    <path id="Path_726" data-name="Path 726" d="M239.15,72.313l11.238-6.523c.1.74.224,1.463.344,2.2Z" transform="translate(110.05 2.708)" fill="#b5c1c6"/>
    <path id="Path_727" data-name="Path 727" d="M297.8,108.76l-.964,5.92-18.4,10.688,2.547-15.489A27.261,27.261,0,0,0,297.8,108.76Z" transform="translate(138.38 33.691)" fill="#b5c1c6"/>
    <path id="Path_728" data-name="Path 728" d="M259.949,71.52a7.539,7.539,0,0,1,.207-1.411,6.654,6.654,0,0,1,.172-.757c.069-.241.189-.809.293-1.188l.241-.723.413-1.05c.1-.207.189-.43.293-.637s.361-.654.534-.964l.327-.534c.241-.344.482-.654.723-.947l.293-.361a9.777,9.777,0,0,1,1.153-1.084c.189-.172.413-.293.62-.447,3.322-2.323,7.917-2.564,13.1-.327a26.429,26.429,0,0,0-.172,2.7,14.191,14.191,0,0,0,.1,2.341v.74a11.644,11.644,0,0,0,.189,1.532c.069.516.172,1.119.293,1.721s.138.774.224,1.17.172.706.258,1.067.258,1.015.413,1.515.172.585.258.861q.258.861.568,1.721c.086.224.155.465.241.688.293.774.6,1.549.947,2.323a1.714,1.714,0,0,0,.121.258c.293.688.62,1.377.964,2.048l.31.637c.327.637.671,1.274,1.033,1.893l.207.379c.43.723.878,1.446,1.325,2.169l.413.6c.344.516.688,1.015,1.05,1.515s.379.534.585.792l.947,1.222.826,1c.258.31.534.6.809.912s.929,1.015,1.394,1.5l.912.895.706.654,1.188,1.05.723.6,1.342,1,.62.465c.671.447,1.342.878,2.014,1.274a20.923,20.923,0,0,0,1.945,1l.5.241h.207c-.585,5.266-2.788,9.018-6.093,10.894h0a8.868,8.868,0,0,1-1.36.62l-.31.12h0a11.265,11.265,0,0,1-1.153.327h-.31A11.53,11.53,0,0,1,291,113.7h-2.272a6.1,6.1,0,0,1-1.1-.172l-.843-.172h0c-.516-.12-1.033-.258-1.566-.43h0c-.585-.207-1.17-.447-1.721-.706l-.482-.224c-.637-.31-1.291-.637-1.945-1.015s-1.342-.826-2.014-1.274l-.637-.465c-.447-.31-.895-.654-1.325-1l-.723-.6-.671-.585-.516-.447-.723-.671h0l-.895-.895h0q-.723-.723-1.394-1.5h0c-.275-.293-.551-.6-.809-.912h0l-.826-1h0c-.327-.4-.637-.809-.947-1.222s-.4-.516-.585-.792-.706-1-1.05-1.515l-.413-.6h0c-.465-.706-.895-1.428-1.325-2.169l-.206-.379h0c-.361-.62-.706-1.256-1.033-1.876h0l-.31-.62h0c-.327-.688-.654-1.377-.964-2.065h0l-.1-.258c-.344-.757-.654-1.532-.947-2.306h0l-.241-.706h0c-.207-.568-.4-1.119-.568-1.721h0c-.1-.293-.189-.585-.275-.878h0c-.138-.5-.275-1-.4-1.5s-.189-.723-.258-1.084-.155-.774-.241-1.153h0c-.1-.568-.207-1.136-.275-1.721s-.138-1.015-.189-1.515h0V76.8c0-.774-.1-1.566-.1-2.323a14.47,14.47,0,0,1,.12-2.289A.558.558,0,0,1,259.949,71.52Z" transform="translate(125.032 -1.801)" fill="#b5c1c6"/>
    <path id="Path_729" data-name="Path 729" d="M209.47,12.408l18.4-10.688,14.044,14.113-18.4,10.7Z" transform="translate(151.038 1.24)" fill="#c7d2d7"/>
    <path id="Path_730" data-name="Path 730" d="M268.922,44.744l-1.48-.172h-4.853a14.694,14.694,0,0,0-2.151.241h-.4c-.809.155-1.6.344-2.375.551h0l-.4.138a16.968,16.968,0,0,0-1.859.654h0c-.516.207-1.033.413-1.532.654l18.4-10.688,1.067-.482-1.583,9.6C270.8,45.037,269.869,44.865,268.922,44.744Z" transform="translate(120.671 -19.032)" fill="#b5c1c6"/>
    <path id="Path_731" data-name="Path 731" d="M262.02,75.815l18.415-10.7,11.5,17.641-18.4,10.7Z" transform="translate(188.929 46.948)" fill="#b5c1c6"/>
    <path id="Path_732" data-name="Path 732" d="M291.788,75.36l-11.17,15.7-18.4,10.7,11.17-15.7Z" transform="translate(189.073 54.338)" fill="#c7d2d7"/>
    <path id="Path_733" data-name="Path 733" d="M299.251,120.2a53.135,53.135,0,0,0,.31-5.852h0c0-1.308,0-2.633-.12-3.958h0v-1.067h0c-.172-2.461-.482-4.957-.912-7.469h0l11.411-4.423L298.907,68.908l18.4-10.688,11.049,28.518-11.238,6.523c0,.379.138.774.172,1.153a.739.739,0,0,1,0,.189v.465c.138,1.17.258,2.306.344,3.442v1.084c.086,1.325.138,2.65.121,3.976a51,51,0,0,1-1.188,11.17L298.15,125.427A45.052,45.052,0,0,0,299.251,120.2Z" transform="translate(152.592 -2.751)" fill="#c7d2d7"/>
    <path id="Path_734" data-name="Path 734" d="M296.243,74.357h0c-.775-1.2-1.566-2.409-2.392-3.58h0l-.344-.465h0c-.826-1.17-1.721-2.323-2.564-3.442l-.568-.74h0c-1.05-1.36-2.134-2.668-3.236-3.958h0l-1-1.119h0c-.447-.5-.895-1.015-1.36-1.5h0c-.361-.4-.74-.774-1.1-1.153h0L282.3,56.992h0c-.723-.723-1.446-1.446-2.2-2.134L298.515,44.17c.637.6,1.291,1.222,1.91,1.842l.275.293c.482.465.929.947,1.394,1.411s.74.774,1.1,1.153.912,1.015,1.377,1.532l.878.964.121.155c1.1,1.274,2.186,2.6,3.236,3.941l.344.413.379.516c.826,1.084,1.635,2.169,2.427,3.287l.258.361v.1c.826,1.17,1.618,2.358,2.392,3.58l.206.293c.482.774.981,1.549,1.446,2.341l-18.4,10.688A26.892,26.892,0,0,0,296.243,74.357Z" transform="translate(139.577 -12.881)" fill="#c7d2d7"/>
    <path id="Path_735" data-name="Path 735" d="M242.41,18.155l18.4-10.7,2.461,18.4-18.4,10.7Z" transform="translate(174.789 5.372)" fill="#b5c1c6"/>
    <path id="Path_736" data-name="Path 736" d="M229.5,10.688,247.9,0l22.219,12.822-18.4,10.7Z" transform="translate(165.48)" fill="#c7d2d7"/>
    <path id="Path_737" data-name="Path 737" d="M254.19,41.728l18.4-10.688,14.078,2.1-18.4,10.7Z" transform="translate(183.283 22.381)" fill="#b5c1c6"/>
    <path id="Path_738" data-name="Path 738" d="M239.15,96.5,250.2,125.015l14.078,2.117a104.14,104.14,0,0,0,17.813,22.184l2.461,18.467L306.77,180.6l2.547-15.489a27.261,27.261,0,0,0,16.815-1.1c.361-.155.723-.293,1.067-.465l14.044,14.113,11.17-15.7L340.9,144.325a45.061,45.061,0,0,0,.895-5.318,53.165,53.165,0,0,0,.31-5.852h0c0-1.308,0-2.633-.12-3.958V128.13c-.172-2.461-.482-4.957-.912-7.469h0l11.411-4.509L341.449,87.633l-14.078-2.117q-.792-1.325-1.721-2.633c-.774-1.2-1.566-2.409-2.392-3.58l-.344-.465c-.826-1.17-1.721-2.323-2.564-3.442l-.568-.74c-1.05-1.36-2.134-2.668-3.236-3.958l-.895-1.015c-.447-.5-.895-1.015-1.36-1.5s-.74-.774-1.119-1.17L311.8,65.6c-.723-.723-1.446-1.428-2.2-2.134l-2.444-18.4L284.93,32.25l-.964,5.9-1.583,9.6c-.964-.207-1.893-.361-2.84-.5l-1.48-.172H273.21a14.694,14.694,0,0,0-2.151.241,2.753,2.753,0,0,1-.4,0c-.809.155-1.6.344-2.375.551l-.4.138a16.973,16.973,0,0,0-1.859.654c-.516.207-1.033.413-1.532.654L250.457,35.21l-11.17,15.7L250.8,68.547a49.911,49.911,0,0,0-1.2,11.17,68.486,68.486,0,0,0,.792,10.326c.1.74.224,1.463.344,2.2Zm35.574-2.323a14.255,14.255,0,0,1,.12-2.289,1.849,1.849,0,0,1,.086-.688,7.544,7.544,0,0,1,.206-1.411,6.667,6.667,0,0,1,.172-.757c.069-.241.189-.809.293-1.188l.241-.723.413-1.05c.1-.207.189-.43.293-.637s.361-.654.534-.964l.327-.534c.241-.344.482-.654.723-.947l.293-.361a9.772,9.772,0,0,1,1.153-1.084c.189-.172.413-.293.62-.447,3.322-2.323,7.917-2.564,13.1-.327.861.379,1.721.809,2.616,1.308,11.669,6.747,21.1,23.079,21.066,36.486a22.543,22.543,0,0,1-.155,2.685c-.585,5.266-2.788,9.018-6.093,10.894h0a8.864,8.864,0,0,1-1.36.62l-.379.138a11.274,11.274,0,0,1-1.153.327h-.344a11.533,11.533,0,0,1-1.549.172h-2.306a6.1,6.1,0,0,1-1.1-.172l-.878-.189c-.516-.12-1.033-.258-1.566-.43h-.12c-.585-.207-1.17-.447-1.721-.706a26.991,26.991,0,0,1-2.427-1.239,33.389,33.389,0,0,1-5.37-3.924l-.516-.447-.723-.671-.895-.895c-.465-.482-.947-.981-1.394-1.5s-.551-.6-.809-.912l-.826-1c-.327-.4-.637-.809-.947-1.222s-.4-.516-.585-.792-.706-1-1.05-1.515l-.413-.6c-.465-.706-.895-1.428-1.325-2.169l-.207-.379c-.361-.62-.706-1.256-1.033-1.876-.1-.224-.207-.43-.327-.637-.327-.688-.654-1.377-.964-2.065l-.1-.258c-.344-.757-.654-1.532-.947-2.306l-.241-.706c-.207-.568-.4-1.119-.568-1.721-.1-.293-.189-.585-.275-.878s-.275-1-.4-1.5-.189-.723-.258-1.084-.155-.774-.241-1.153-.207-1.136-.275-1.721-.138-1.015-.189-1.515A20.316,20.316,0,0,1,274.724,94.173Z" transform="translate(110.05 -21.476)" fill="#dfe7ea"/>
    <path id="Path_739" data-name="Path 739" d="M207.73,62.49a2.817,2.817,0,0,0,.172.654C207.85,62.937,207.782,62.714,207.73,62.49Z" transform="translate(87.395 0.328)" fill="none"/>
    <path id="Path_740" data-name="Path 740" d="M194.87,43.27Z" transform="translate(140.51 31.2)" fill="none"/>
    <path id="Path_741" data-name="Path 741" d="M231.48,72.594h0V71.94h0Z" transform="translate(104.52 7.142)" fill="none"/>
    <path id="Path_742" data-name="Path 742" d="M210.63,68.81l.361.482Z" transform="translate(89.486 4.885)" fill="none"/>
    <path id="Path_743" data-name="Path 743" d="M207.673,58l-.1.465Z" transform="translate(87.28 -2.909)" fill="none"/>
    <path id="Path_744" data-name="Path 744" d="M207.895,57.31l-.155.447Z" transform="translate(87.402 -3.407)" fill="none"/>
    <path id="Path_745" data-name="Path 745" d="M208.477,56.17l-.207.327A3.439,3.439,0,0,1,208.477,56.17Z" transform="translate(87.784 -4.229)" fill="none"/>
    <path id="Path_746" data-name="Path 746" d="M208.168,56.7c0,.138-.12.275-.189.4S208.03,56.838,208.168,56.7Z" transform="translate(87.56 -3.847)" fill="none"/>
    <path id="Path_747" data-name="Path 747" d="M220.3,73.41Z" transform="translate(96.459 8.202)" fill="none"/>
    <path id="Path_748" data-name="Path 748" d="M209.548,55.16c-.12.086-.258.155-.379.258S209.428,55.246,209.548,55.16Z" transform="translate(88.416 -4.957)" fill="none"/>
    <path id="Path_749" data-name="Path 749" d="M208.822,55.7a1.945,1.945,0,0,0-.172.224A1.945,1.945,0,0,1,208.822,55.7Z" transform="translate(88.058 -4.568)" fill="none"/>
    <path id="Path_750" data-name="Path 750" d="M231.41,77.337a34.165,34.165,0,0,0,.189-3.6h0a34.19,34.19,0,0,1-.19,3.6Z" transform="translate(104.469 8.44)" fill="none"/>
    <path id="Path_751" data-name="Path 751" d="M208.2,42.94Z" transform="translate(87.734 -13.768)" fill="none"/>
    <path id="Path_752" data-name="Path 752" d="M207.386,42.93Z" transform="translate(86.775 -13.775)" fill="none"/>
    <path id="Path_753" data-name="Path 753" d="M206.211,43Z" transform="translate(86.126 -13.725)" fill="none"/>
    <path id="Path_754" data-name="Path 754" d="M204.707,43.53c-.31.12-.637.258-.947.413C204.07,43.788,204.4,43.65,204.707,43.53Z" transform="translate(84.532 -13.343)" fill="none"/>
    <path id="Path_755" data-name="Path 755" d="M208.62,43l.912.1Z" transform="translate(88.037 -13.725)" fill="none"/>
    <path id="Path_756" data-name="Path 756" d="M226.7,57.438c-.327-.551-.671-1.084-1.015-1.618h0C226.024,56.354,226.368,56.887,226.7,57.438Z" transform="translate(100.338 -4.481)" fill="none"/>
    <path id="Path_757" data-name="Path 757" d="M221.242,52.9h0L219.9,51.592,231.225,45,219.9,51.592Z" transform="translate(96.17 -12.283)" fill="none"/>
    <path id="Path_758" data-name="Path 758" d="M222.68,51.756h0l-.62-.706h0Z" transform="translate(97.728 -7.92)" fill="none"/>
    <path id="Path_759" data-name="Path 759" d="M221.851,50.806h0l-.671-.706h0Z" transform="translate(97.093 -8.605)" fill="none"/>
    <path id="Path_760" data-name="Path 760" d="M224.907,54.663h0l-.207-.293h0Z" transform="translate(99.631 -5.527)" fill="none"/>
    <path id="Path_761" data-name="Path 761" d="M223.924,53.317c-.1-.155-.224-.293-.344-.447h0C223.7,53.094,223.821,53.094,223.924,53.317Z" transform="translate(98.824 -6.608)" fill="none"/>
    <path id="Path_762" data-name="Path 762" d="M205.221,43.25h0Z" transform="translate(85.412 -13.545)" fill="none"/>
    <path id="Path_763" data-name="Path 763" d="M210.368,68.411l-.258-.361h0Z" transform="translate(89.111 4.337)" fill="none"/>
    <path id="Path_764" data-name="Path 764" d="M209.7,67.364l-.138-.224h0Z" transform="translate(88.714 3.681)" fill="none"/>
    <path id="Path_765" data-name="Path 765" d="M209.287,66.619h0l-.207-.379h0Z" transform="translate(88.368 3.032)" fill="none"/>
    <path id="Path_766" data-name="Path 766" d="M211.7,70.132h0l-.516-.6h0C211.352,69.737,211.524,69.943,211.7,70.132Z" transform="translate(89.883 5.405)" fill="none"/>
    <path id="Path_767" data-name="Path 767" d="M208.776,65.565l-.086-.155Z" transform="translate(88.087 2.434)" fill="none"/>
    <path id="Path_768" data-name="Path 768" d="M212.631,71.122h0c-.293-.293-.585-.6-.861-.912h0C212.045,70.52,212.338,70.83,212.631,71.122Z" transform="translate(90.308 5.895)" fill="none"/>
    <path id="Path_769" data-name="Path 769" d="M207.491,61.723h0a17.623,17.623,0,0,1,0-1.893,13.372,13.372,0,0,0,0,1.428,4.207,4.207,0,0,1,0,.465Z" transform="translate(87.204 -1.59)" fill="none"/>
    <path id="Path_770" data-name="Path 770" d="M208.425,64.76h0l-.155-.43h0Z" transform="translate(87.784 1.655)" fill="none"/>
    <path id="Path_771" data-name="Path 771" d="M207.722,62.52a7.413,7.413,0,0,0-.172-1.05A7.413,7.413,0,0,0,207.722,62.52Z" transform="translate(87.265 -0.407)" fill="none"/>
    <path id="Path_772" data-name="Path 772" d="M213.02,71.466l-.43-.4h0Z" transform="translate(90.899 6.515)" fill="none"/>
    <path id="Path_773" data-name="Path 773" d="M207.511,58.76v.43A.908.908,0,0,1,207.511,58.76Z" transform="translate(87.218 -2.361)" fill="none"/>
    <path id="Path_774" data-name="Path 774" d="M208.142,63.954h0a1.935,1.935,0,0,0-.172-.534h0A1.746,1.746,0,0,0,208.142,63.954Z" transform="translate(87.568 0.999)" fill="none"/>
    <path id="Path_775" data-name="Path 775" d="M216.536,73.58h0Z" transform="translate(93.682 8.325)" fill="none"/>
    <path id="Path_776" data-name="Path 776" d="M219.364,73.8h0Z" transform="translate(95.622 8.483)" fill="none"/>
    <path id="Path_777" data-name="Path 777" d="M218.59,73.9Z" transform="translate(95.226 8.556)" fill="none"/>
    <path id="Path_778" data-name="Path 778" d="M217.594,73.843l-.534-.1h0Z" transform="translate(94.122 8.44)" fill="none"/>
    <path id="Path_779" data-name="Path 779" d="M218.166,73.89h0Z" transform="translate(94.634 8.548)" fill="none"/>
    <path id="Path_780" data-name="Path 780" d="M219.921,73.64h0Z" transform="translate(96.012 8.368)" fill="none"/>
    <path id="Path_781" data-name="Path 781" d="M228.085,79.8l-1.2-.62c-.413-.241-.826-.516-1.239-.792l-.379-.293q-.413-.293-.826-.62c-.155-.1-.293-.241-.447-.361l-.723-.637-.447-.413-.551-.551c-.293-.293-.585-.6-.861-.912l-.5-.568-.5-.62-.6-.74c-.12-.172-.241-.327-.344-.5l-.654-.929-.258-.379c-.275-.43-.551-.878-.809-1.325l-.138-.224-.62-1.17-.207-.4c-.207-.413-.4-.843-.585-1.256a.619.619,0,0,1,0-.155c-.206-.482-.4-.964-.585-1.428l-.155-.43c-.12-.344-.241-.706-.344-1.05l-.172-.534c-.086-.31-.155-.62-.241-.929a5.6,5.6,0,0,1-.155-.654c-.034-.207-.1-.482-.155-.723s-.12-.688-.172-1.033a5.3,5.3,0,0,0-.1-.929v-1.91A11.763,11.763,0,0,1,214.2,55a12.894,12.894,0,0,1,1.618.809c7.177,4.148,12.994,14.2,12.96,22.374a11.532,11.532,0,0,1-.086,1.721h-.138Z" transform="translate(91.995 -5.072)" fill="none"/>
    <path id="Path_782" data-name="Path 782" d="M213.891,72.193l.826.62.379.275c.413.293.826.551,1.239.792a20.449,20.449,0,0,1-3.3-2.409l.413.361Z" transform="translate(91.217 6.803)" fill="none"/>
    <path id="Path_783" data-name="Path 783" d="M216.447,73.627c-.5-.224-.981-.465-1.5-.757.413.241.809.43,1.188.62Z" transform="translate(92.601 7.813)" fill="none"/>
    <path id="Path_784" data-name="Path 784" d="M194.7,62.34l6.884-4.01.207,1.36Z" transform="translate(78 -2.671)" fill="#b5c1c6"/>
    <path id="Path_785" data-name="Path 785" d="M230.807,84.78l-.6,3.631L218.88,95l1.566-9.552a16.8,16.8,0,0,0,10.361-.671Z" transform="translate(95.435 16.401)" fill="#b5c1c6"/>
    <path id="Path_786" data-name="Path 786" d="M207.508,61.855a2.091,2.091,0,0,1,.12-.861l.1-.465a7.342,7.342,0,0,1,.189-.723l.155-.447a1.883,1.883,0,0,1,.241-.654c.086-.207.12-.258.189-.4a6.4,6.4,0,0,1,.327-.585l.206-.327c.138-.207.293-.4.447-.585a1.945,1.945,0,0,1,.172-.224,6.506,6.506,0,0,1,.706-.671c.12-.1.258-.172.379-.258a8.02,8.02,0,0,1,8.055-.207c0,.534-.086,1.084-.086,1.721v1.91a2.86,2.86,0,0,0,.1.929,6.464,6.464,0,0,1,.172,1.033,4.7,4.7,0,0,0,.155.723c.069.241.1.43.155.654s.155.62.241.929l.172.534c.1.344.224.706.344,1.05l.155.43c.189.465.379.947.585,1.428a.616.616,0,0,0,0,.155c.189.413.379.843.585,1.256l.207.4.62,1.17.138.224c.258.447.534.895.809,1.325l.258.379.654.929c.1.172.224.327.344.5l.6.74.5.62.5.568c.275.31.568.62.861.912l.551.551.447.413.723.637c.155.12.293.258.447.361s.551.43.826.62l.379.293c.413.275.826.551,1.239.792l1.2.62.293.138h.138a8.33,8.33,0,0,1-3.752,6.695h0a7.282,7.282,0,0,1-.826.4h-.189l-.706.189h-.189a8.368,8.368,0,0,1-.947.12h-1.291a4.527,4.527,0,0,1-.671-.1l-.516-.1h0l-.964-.275h-.086c-.361-.12-.723-.275-1.084-.43l-.31-.138c-.379-.189-.774-.379-1.188-.62s-.826-.5-1.239-.792l-.379-.275-.826-.62-.447-.361-.413-.361-.327-.293-.43-.4h0l-.551-.568h0c-.293-.293-.585-.6-.861-.912h0l-.5-.568h0c-.172-.189-.344-.4-.5-.6h0l-.585-.757-.361-.482c-.207-.31-.43-.62-.637-.947l-.258-.361h0c-.275-.447-.551-.878-.809-1.342l-.138-.224h0c-.207-.379-.43-.774-.62-1.17h0l-.207-.379h0c-.207-.43-.4-.843-.585-1.274h0l-.086-.155c-.207-.465-.4-.947-.568-1.428h0l-.155-.43h0c-.12-.344-.241-.688-.344-1.033h0a1.935,1.935,0,0,0-.172-.534h0c-.086-.327-.172-.62-.241-.947s-.121-.43-.172-.654a2.135,2.135,0,0,0-.138-.706h0a7.414,7.414,0,0,0-.172-1.05c-.052-.344-.086-.62-.12-.929h0a4.215,4.215,0,0,0,0-.465,13.372,13.372,0,0,1,0-1.428V62.268C207.457,62.147,207.491,62.01,207.508,61.855Z" transform="translate(87.221 -5.456)" fill="#b5c1c6"/>
    <path id="Path_787" data-name="Path 787" d="M162.49,15.474,173.815,8.9l8.64,8.691L171.13,24.166Z" transform="translate(117.163 6.417)" fill="#c7d2d7"/>
    <path id="Path_788" data-name="Path 788" d="M213.015,45.387l-.912-.1H209.16a3.837,3.837,0,0,0-1.325.155h-.241a13.77,13.77,0,0,0-1.463.327h-.241c-.4.12-.774.241-1.153.4h0c-.31.12-.637.258-.947.413l11.342-6.592.654-.293-.981,5.92a16.058,16.058,0,0,0-1.79-.224Z" transform="translate(84.554 -16.112)" fill="#b5c1c6"/>
    <path id="Path_789" data-name="Path 789" d="M194.84,54.494l11.325-6.574,7.091,10.86-11.324,6.574Z" transform="translate(140.489 34.553)" fill="#b5c1c6"/>
    <path id="Path_790" data-name="Path 790" d="M213.169,54.23l-6.884,9.655L194.96,70.46l6.884-9.655Z" transform="translate(140.575 39.103)" fill="#c7d2d7"/>
    <path id="Path_791" data-name="Path 791" d="M231.655,91.787a34.165,34.165,0,0,0,.189-3.6h0V85.746h0v-.654h0c-.12-1.515-.31-3.063-.568-4.6h0l7.108-2.65L231.6,60.292,242.928,53.7l6.781,17.555-6.884,4.027.1.706v.4c.086.723.155,1.428.207,2.134v3.115a30.326,30.326,0,0,1-.74,6.884L231.07,95.108A26.71,26.71,0,0,0,231.655,91.787Z" transform="translate(104.224 -6.01)" fill="#c7d2d7"/>
    <path id="Path_792" data-name="Path 792" d="M229.848,63.622h0c-.482-.74-.964-1.48-1.48-2.2h0l-.207-.293h0c-.516-.723-1.033-1.428-1.583-2.134-.1-.155-.224-.293-.344-.447h0c-.654-.826-1.308-1.721-2-2.427h0l-.62-.688h0l-.843-.929h0l-.671-.706h0l-.861-.878h0L219.9,51.609,231.225,45l1.17,1.136.172.189c.293.275.585.568.861.861l.671.723c.293.293.568.62.861.929l.534.6v.086c.688.792,1.342,1.6,2,2.427l.207.258.241.327c.5.654,1,1.325,1.48,2.014a2.524,2.524,0,0,1,.172.224h0c.516.723,1,1.463,1.48,2.2l.12.189c.31.482.6.964.895,1.446L230.76,65.188A12.613,12.613,0,0,0,229.848,63.622Z" transform="translate(96.17 -12.283)" fill="#c7d2d7"/>
    <path id="Path_793" data-name="Path 793" d="M182.77,19l11.325-6.574,1.514,11.325-11.325,6.574Z" transform="translate(131.786 8.963)" fill="#b5c1c6"/>
    <path id="Path_794" data-name="Path 794" d="M174.82,14.414,186.162,7.84l13.665,7.9L188.5,22.314Z" transform="translate(126.053 5.653)" fill="#c7d2d7"/>
    <path id="Path_795" data-name="Path 795" d="M190.02,33.532l11.325-6.592,8.674,1.308-11.325,6.574Z" transform="translate(137.013 19.425)" fill="#b5c1c6"/>
    <path id="Path_796" data-name="Path 796" d="M194.7,77.244,201.584,94.8l8.605,1.308a64.246,64.246,0,0,0,10.963,13.648l1.514,11.325,13.665,7.9,1.566-9.552a16.8,16.8,0,0,0,10.326-.671l.654-.293,8.605,8.605,6.884-9.655-7.091-10.86a26.7,26.7,0,0,0,.551-3.287,34.157,34.157,0,0,0,.189-3.6h0v-3.1c-.12-1.515-.31-3.063-.568-4.6h0l7.108-2.65-6.781-17.555-8.605-1.308c-.327-.551-.671-1.084-1.015-1.618s-.964-1.48-1.48-2.2l-.207-.293c-.516-.723-1.033-1.428-1.583-2.134-.1-.155-.224-.293-.344-.447-.654-.826-1.308-1.721-2-2.427l-.62-.706-.843-.929L240.411,59l-.861-.878-1.342-1.308L236.522,45.56l-13.768-7.9-.585,3.631-.981,5.92a16.054,16.054,0,0,0-1.721-.31l-.912-.1h-2.96a3.837,3.837,0,0,0-1.325.155h-.241a13.769,13.769,0,0,0-1.463.327h-.241c-.4.12-.774.241-1.153.4s-.637.258-.947.413L201.619,39.4l-6.884,9.655,7.091,10.86a30.477,30.477,0,0,0-.74,6.884,40.218,40.218,0,0,0,.482,6.351l.207,1.36Zm21.909-1.428V73.974a2.439,2.439,0,0,1,.12-.861l.1-.465a7.342,7.342,0,0,1,.189-.723l.155-.447a1.884,1.884,0,0,1,.241-.654c.086-.207.12-.258.189-.4a6.417,6.417,0,0,1,.327-.585,3.453,3.453,0,0,1,.207-.327c.138-.207.293-.4.447-.585a1.945,1.945,0,0,1,.172-.224,6.508,6.508,0,0,1,.706-.671c.121-.1.258-.172.379-.258a8.02,8.02,0,0,1,8.055-.207,12.892,12.892,0,0,1,1.618.809c7.177,4.148,12.994,14.2,12.96,22.374a11.532,11.532,0,0,1-.086,1.721,8.33,8.33,0,0,1-3.752,6.695h0a7.276,7.276,0,0,1-.826.4h-.241l-.706.189h-.224a8.362,8.362,0,0,1-.947.12H234.4a4.525,4.525,0,0,1-.671-.1l-.534-.1-.964-.275h-.086c-.361-.12-.723-.275-1.084-.43s-.981-.465-1.5-.757a20.446,20.446,0,0,1-3.3-2.409l-.327-.293-.43-.4-.551-.568c-.293-.293-.585-.6-.861-.912l-.5-.568-.516-.6-.585-.757-.361-.482c-.207-.31-.43-.62-.637-.947l-.258-.361c-.275-.447-.551-.878-.809-1.342l-.138-.224c-.207-.379-.43-.774-.62-1.17l-.207-.379c-.207-.43-.4-.843-.585-1.274l-.086-.155c-.207-.465-.4-.947-.568-1.428l-.155-.43c-.12-.344-.241-.688-.344-1.033s-.12-.361-.172-.534-.172-.62-.241-.947-.12-.43-.172-.654a2.135,2.135,0,0,0-.138-.706,3.717,3.717,0,0,1-.172-1.05c-.052-.344-.086-.62-.121-.929a17.628,17.628,0,0,1-.1-1.842Z" transform="translate(78 -17.575)" fill="#dfe7ea"/>
    <path id="Path_797" data-name="Path 797" d="M38.039,347.266,244.565,227.291a9,9,0,0,1,9.053,0l155.669,89.873a3.614,3.614,0,0,1,0,6.247L202.761,443.369a9,9,0,0,1-9.053,0L38.056,353.513a3.614,3.614,0,0,1-.017-6.247Z" transform="translate(-36.25 118.278)" fill="#455a64" opacity="0.2"/>
    <path id="Path_798" data-name="Path 798" d="M364.526,274.277,209.752,184.92,4.19,304.378l154.774,89.357Z" transform="translate(3.02 133.337)" fill="#fff"/>
    <path id="Path_799" data-name="Path 799" d="M94.149,356.3l-.069,26.711L299.642,263.551l.069-26.711Z" transform="translate(67.836 170.774)" fill="#d5fbfc"/>
    <path id="Path_800" data-name="Path 800" d="M94.149,356.3l-.069,26.711L299.642,263.551l.069-26.711Z" transform="translate(67.836 170.774)" fill="#aedbe5"/>
    <path id="Path_801" data-name="Path 801" d="M4.219,254.33,4.15,281.041,158.924,370.4l.069-26.711Z" transform="translate(2.991 183.385)" fill="#d9f2f9"/>
    <g id="Group_285" data-name="Group 285" transform="translate(37.518 338.961)">
      <path id="Path_802" data-name="Path 802" d="M179.509,246.553l-4.957,2.874L100.22,206.521l4.974-2.891Z" transform="translate(34.745 -192.133)" fill="#9caad1"/>
      <path id="Path_803" data-name="Path 803" d="M112.547,237.86l-4.957,2.891L74.34,221.561l4.974-2.891Z" transform="translate(16.084 -181.289)" fill="#9caad1"/>
      <path id="Path_804" data-name="Path 804" d="M250.378,274.139l-4.939,2.874L111.73,199.824l4.957-2.874Z" transform="translate(43.044 -196.95)" fill="#9caad1"/>
      <path id="Path_805" data-name="Path 805" d="M244.628,277.5l-4.957,2.857L105.98,203.164l4.939-2.874Z" transform="translate(38.898 -194.542)" fill="#9caad1"/>
      <path id="Path_806" data-name="Path 806" d="M230.265,285.839l-4.974,2.874L91.6,211.524l4.957-2.874Z" transform="translate(28.529 -188.514)" fill="#9caad1"/>
      <path id="Path_807" data-name="Path 807" d="M91.565,268.314l-4.957,2.874-49-28.294,4.957-2.874Z" transform="translate(-10.4 -165.894)" fill="#9caad1"/>
      <path id="Path_808" data-name="Path 808" d="M224.5,289.179l-4.939,2.874L85.85,214.864l4.957-2.874Z" transform="translate(24.383 -186.105)" fill="#9caad1"/>
      <path id="Path_809" data-name="Path 809" d="M218.748,292.536l-4.957,2.857L80.1,218.2l4.939-2.874Z" transform="translate(20.237 -183.697)" fill="#9caad1"/>
      <path id="Path_810" data-name="Path 810" d="M166.677,286.694l-4.957,2.874-102.54-59.2,4.939-2.874Z" transform="translate(5.153 -174.929)" fill="#9caad1"/>
      <path id="Path_811" data-name="Path 811" d="M203.578,301.339l-4.939,2.874L64.93,227.007l4.957-2.857Z" transform="translate(9.299 -177.337)" fill="#9caad1"/>
      <path id="Path_812" data-name="Path 812" d="M102.741,293.08l-4.957,2.874L21.8,252.084l4.939-2.874Z" transform="translate(-21.8 -159.268)" fill="#9caad1"/>
      <path id="Path_813" data-name="Path 813" d="M187.775,310.529l-4.957,2.874L49.11,236.214l4.957-2.874Z" transform="translate(-2.108 -170.711)" fill="#9caad1"/>
      <path id="Path_814" data-name="Path 814" d="M182.018,313.869l-4.957,2.874L43.37,239.554l4.939-2.874Z" transform="translate(-6.247 -168.303)" fill="#9caad1"/>
      <path id="Path_815" data-name="Path 815" d="M166.2,323.059l-4.957,2.874L27.55,248.744l4.957-2.874Z" transform="translate(-17.654 -161.676)" fill="#9caad1"/>
    </g>
    <path id="Path_816" data-name="Path 816" d="M171.435,221.887l-4.957,2.891-49-28.294,4.957-2.874Z" transform="translate(84.708 139.603)" fill="#9caad1"/>
    <path id="Path_817" data-name="Path 817" d="M376.3,190.3,135.237,51.394c-2.582-1.48-4.871-1.515-6.471-.4L120.35,55.92h0a6.3,6.3,0,0,1,5.714.774L367.1,195.6a18.932,18.932,0,0,1,8.605,14.922l-.086,25.816-.448,159.008a6.041,6.041,0,0,1-2.392,5.421h0l8.605-5.163a4.927,4.927,0,0,0,.723-.413h0a6.265,6.265,0,0,0,2.169-5.3l.448-159.008.086-25.816A18.932,18.932,0,0,0,376.3,190.3Z" transform="translate(24.389 -8.523)" fill="#6680b1"/>
    <path id="Path_818" data-name="Path 818" d="M82.34,45.85Z" transform="translate(59.37 33.06)" fill="#d5fbfc"/>
    <path id="Path_819" data-name="Path 819" d="M376.624,393.076l.448-159.008.086-25.816a18.932,18.932,0,0,0-8.605-14.922L127.5,54.476a6.3,6.3,0,0,0-5.714-.774c-1.721.774-2.96,2.754-2.96,5.714V85.231h0l-.447,158.991a18.932,18.932,0,0,0,8.605,14.922L367.932,398.05a5.955,5.955,0,0,0,6.282.482,6.041,6.041,0,0,0,2.409-5.456Z" transform="translate(22.969 -6.27)" fill="#9caad1"/>
    <path id="Path_820" data-name="Path 820" d="M255.8,159.633l-.361,130.284a4.991,4.991,0,0,1-1.962,4.44h0l6.006-3.442a2.6,2.6,0,0,0,.6-.344h0a5.163,5.163,0,0,0,1.721-4.337l.361-130.284-6.437,3.735Z" transform="translate(120.383 67.718)" fill="#d9f2f9"/>
    <path id="Path_821" data-name="Path 821" d="M350.162,189.5,132.931,64.086a4.784,4.784,0,0,0-5.284-.327L121.83,67.2h0a5.163,5.163,0,0,1,4.664.637l217.231,125.43a15.489,15.489,0,0,1,7.073,12.237v21.1l6.437-3.735v-21.1a15.49,15.49,0,0,0-7.074-12.271Z" transform="translate(25.457 0.78)" fill="#696e79"/>
    <path id="Path_822" data-name="Path 822" d="M351.573,344.349l.361-130.284L120.521,80.46l-.361,130.284a15.49,15.49,0,0,0,7.056,12.219l217.248,125.43a4.888,4.888,0,0,0,5.163.4,4.991,4.991,0,0,0,1.945-4.44Z" transform="translate(24.252 13.286)" fill="#fff"/>
    <path id="Path_823" data-name="Path 823" d="M351.767,225h0V203.9a15.489,15.489,0,0,0-7.073-12.237L127.531,66.229a5.163,5.163,0,0,0-4.664-.637,4.716,4.716,0,0,0-2.444,4.7v21.1Z" transform="translate(24.419 2.355)" fill="#132d46"/>
    <path id="Path_824" data-name="Path 824" d="M232.8,188.677a10.86,10.86,0,0,1,4.939,8.605V206.2c0,3.15-2.237,4.423-4.974,2.84l-18.742-10.825a10.877,10.877,0,0,1-4.939-8.605v-9c0-3.15,2.22-4.423,4.957-2.84Z" transform="translate(88.368 82.957)" fill="#9caad1"/>
    <path id="Path_825" data-name="Path 825" d="M232.749,204.512a10.929,10.929,0,0,1,4.939,8.605v9c0,3.15-2.237,4.423-4.974,2.84L213.989,214.15a10.894,10.894,0,0,1-4.939-8.605v-9.07c0-3.15,2.237-4.423,4.974-2.84Z" transform="translate(88.347 94.4)" fill="#9caad1"/>
    <path id="Path_826" data-name="Path 826" d="M212.965,161.323a10.929,10.929,0,0,1,4.939,8.605v9.018c0,3.15-2.237,4.406-4.974,2.84l-18.811-10.929a10.86,10.86,0,0,1-4.939-8.605v-9.018c0-3.132,2.237-4.423,4.974-2.84Z" transform="translate(74.019 63.223)" fill="#9caad1"/>
    <path id="Path_827" data-name="Path 827" d="M212.936,145.423a10.826,10.826,0,0,1,4.939,8.605v9c0,3.167-2.237,4.423-4.974,2.84l-18.742-10.808a10.911,10.911,0,0,1-4.939-8.605v-9c0-3.15,2.22-4.423,4.974-2.84Z" transform="translate(74.048 51.844)" fill="#5e72ac"/>
    <path id="Path_828" data-name="Path 828" d="M192.936,165.649a10.826,10.826,0,0,1,4.939,8.605V183.2c0,3.15-2.237,4.406-4.974,2.84l-18.742-10.825a10.911,10.911,0,0,1-4.939-8.605v-9.018c0-3.15,2.22-4.423,4.974-2.84Z" transform="translate(59.627 66.365)" fill="#9caad1"/>
    <g id="Group_286" data-name="Group 286" transform="translate(228.864 165.951)">
      <path id="Path_829" data-name="Path 829" d="M192.929,149.753a10.963,10.963,0,0,1,4.939,8.605v9.018c0,3.15-2.237,4.406-4.974,2.823l-18.725-10.808a10.894,10.894,0,0,1-4.939-8.605v-9c0-3.15,2.237-4.423,4.974-2.84Z" transform="translate(-169.23 -110.986)" fill="#9caad1"/>
      <path id="Path_830" data-name="Path 830" d="M193.006,133.9a10.894,10.894,0,0,1,4.939,8.605v9c0,3.167-2.237,4.423-4.974,2.84l-18.742-10.808a10.929,10.929,0,0,1-4.939-8.605v-9c0-3.15,2.22-4.423,4.974-2.84Z" transform="translate(-169.187 -122.414)" fill="#5e72ac"/>
    </g>
    <path id="Path_831" data-name="Path 831" d="M212.863,177.146a10.86,10.86,0,0,1,4.939,8.605v9.018c0,3.15-2.237,4.423-4.974,2.84l-18.759-10.877a10.911,10.911,0,0,1-4.939-8.605v-9.018c0-3.15,2.22-4.406,4.974-2.823Z" transform="translate(73.983 74.678)" fill="#01c38d"/>
    <path id="Path_832" data-name="Path 832" d="M252.812,168.468a10.894,10.894,0,0,1,4.939,8.605v9.018c0,3.15-2.237,4.423-4.974,2.84l-18.708-10.877a10.877,10.877,0,0,1-4.939-8.605V160.43c0-3.132,2.22-4.406,4.957-2.84Z" transform="translate(102.825 68.418)" fill="#5e72ac"/>
    <path id="Path_833" data-name="Path 833" d="M252.779,184.293a10.929,10.929,0,0,1,4.939,8.605v9c0,3.15-2.237,4.423-4.974,2.84l-18.725-10.808a10.894,10.894,0,0,1-4.939-8.605v-9c0-3.15,2.237-4.423,4.974-2.84Z" transform="translate(102.789 79.871)" fill="#9caad1"/>
    <path id="Path_834" data-name="Path 834" d="M252.689,216a10.877,10.877,0,0,1,4.939,8.605v9c0,3.167-2.237,4.423-4.974,2.857l-18.725-10.825a10.86,10.86,0,0,1-4.939-8.605v-9c0-3.15,2.237-4.423,4.974-2.84Z" transform="translate(102.724 102.735)" fill="#01c38d"/>
    <path id="Path_835" data-name="Path 835" d="M252.736,200.143a10.894,10.894,0,0,1,4.939,8.605v9c0,3.15-2.237,4.423-4.974,2.84l-18.742-10.808a10.929,10.929,0,0,1-4.939-8.605v-9c0-3.15,2.22-4.423,4.957-2.84Z" transform="translate(102.746 91.299)" fill="#9caad1"/>
    <path id="Path_836" data-name="Path 836" d="M232.846,172.859a10.929,10.929,0,0,1,4.939,8.605v9.018c0,3.15-2.237,4.423-4.974,2.84l-18.742-10.929a10.825,10.825,0,0,1-4.939-8.605V164.77c0-3.132,2.237-4.406,4.974-2.84Z" transform="translate(88.404 71.547)" fill="#9caad1"/>
    <path id="Path_837" data-name="Path 837" d="M233,156.961a10.894,10.894,0,0,1,4.939,8.605v9.018c0,3.15-2.237,4.406-4.974,2.84l-18.9-10.877a10.911,10.911,0,0,1-4.939-8.605v-9.018c0-3.132,2.22-4.423,4.957-2.84Z" transform="translate(88.404 60.115)" fill="#5e72ac"/>
    <path id="Path_838" data-name="Path 838" d="M212.794,192.989a10.911,10.911,0,0,1,4.939,8.605v9c0,3.15-2.237,4.423-4.974,2.84l-18.691-10.843a10.894,10.894,0,0,1-4.939-8.605v-9c0-3.167,2.237-4.423,4.974-2.84Z" transform="translate(73.983 86.114)" fill="#9caad1"/>
    <path id="Path_839" data-name="Path 839" d="M172.929,169.961a10.877,10.877,0,0,1,4.939,8.605v9.018c0,3.15-2.237,4.406-4.974,2.84L154.169,179.6a10.86,10.86,0,0,1-4.939-8.605v-9.018c0-3.15,2.237-4.423,4.974-2.84Z" transform="translate(45.213 69.524)" fill="#9caad1"/>
    <path id="Path_840" data-name="Path 840" d="M153.126,110.889a10.894,10.894,0,0,1,4.939,8.605v9.018c0,3.15-2.237,4.406-4.974,2.84l-18.742-10.825a10.911,10.911,0,0,1-4.939-8.605V102.9c0-3.132,2.22-4.423,4.974-2.84Z" transform="translate(30.922 26.933)" fill="#5e72ac"/>
    <path id="Path_841" data-name="Path 841" d="M153.079,126.734a10.929,10.929,0,0,1,4.939,8.605v9c0,3.15-2.237,4.423-4.974,2.84l-18.725-10.808a10.894,10.894,0,0,1-4.939-8.605v-9.018c0-3.132,2.237-4.406,4.974-2.823Z" transform="translate(30.901 38.367)" fill="#9caad1"/>
    <path id="Path_842" data-name="Path 842" d="M153.036,142.583a10.894,10.894,0,0,1,4.939,8.605v9c0,3.15-2.237,4.423-4.974,2.84l-18.742-10.808a10.929,10.929,0,0,1-4.939-8.605v-9c0-3.15,2.22-4.423,4.974-2.84Z" transform="translate(30.857 49.796)" fill="#9caad1"/>
    <path id="Path_843" data-name="Path 843" d="M152.989,158.426a10.929,10.929,0,0,1,4.939,8.605v9.018c0,3.15-2.237,4.406-4.974,2.823l-18.725-10.808a10.894,10.894,0,0,1-4.939-8.605v-8.984c0-3.15,2.237-4.423,4.974-2.84Z" transform="translate(30.836 61.232)" fill="#9caad1"/>
    <path id="Path_844" data-name="Path 844" d="M173.066,122.394A10.894,10.894,0,0,1,178.005,131v9c0,3.15-2.237,4.423-4.974,2.84l-18.742-10.808a10.929,10.929,0,0,1-4.939-8.605v-9.018c0-3.132,2.22-4.406,4.974-2.823Z" transform="translate(45.3 35.238)" fill="#5e72ac"/>
    <path id="Path_845" data-name="Path 845" d="M173.033,138.243a10.929,10.929,0,0,1,4.939,8.605v9c0,3.15-2.237,4.423-4.974,2.84l-18.759-10.86a10.894,10.894,0,0,1-4.939-8.605v-8.949c0-3.15,2.237-4.423,4.974-2.84Z" transform="translate(45.264 46.666)" fill="#9caad1"/>
    <path id="Path_846" data-name="Path 846" d="M172.936,154.093a10.894,10.894,0,0,1,4.939,8.605v9.018c0,3.15-2.237,4.406-4.974,2.823l-18.742-10.808a10.929,10.929,0,0,1-4.939-8.605v-9c0-3.15,2.22-4.423,4.974-2.84Z" transform="translate(45.206 58.095)" fill="#9caad1"/>
    <path id="Path_847" data-name="Path 847" d="M192.9,181.472a10.912,10.912,0,0,1,4.939,8.605v9c0,3.15-2.237,4.423-4.974,2.84l-18.794-10.86a10.86,10.86,0,0,1-4.939-8.605v-8.984c0-3.15,2.237-4.406,4.974-2.823Z" transform="translate(59.562 77.822)" fill="#9caad1"/>
    <path id="Path_848" data-name="Path 848" d="M173.869,135.675a1.721,1.721,0,0,1,.534.5q7.5,9.552,14.405,19.689l10.481-2.117a.792.792,0,0,1,.551.121c.878.5,1.463,2.427.516,2.616l-9.793,1.962c4.1,6.127,8.072,12.409,11.858,18.811.757,1.291,0,2.1-.792,1.618a2.048,2.048,0,0,1-.723-.757c-3.872-6.592-7.968-13.011-12.2-19.293l-19.758,3.958a.775.775,0,0,1-.551-.1c-.878-.516-1.446-2.427-.516-2.616l19.069-3.838q-6.471-9.569-13.613-18.57C172.355,136.329,172.957,135.141,173.869,135.675Z" transform="translate(58.317 53.004)" fill="#3c3970"/>
    <path id="Path_849" data-name="Path 849" d="M228.28,185.758a1.721,1.721,0,0,1,.5.43q8.054,9.294,16.092,18.622l13.906-.688a1.153,1.153,0,0,1,.516.138c.947.551,1.566,2.53.551,2.6l-12.65.6q8.209,9.517,16.436,19.018c1.05,1.2.4,2.478-.568,1.91a1.72,1.72,0,0,1-.5-.413L244.9,207.581l-15.851.774a1.153,1.153,0,0,1-.516-.138c-.947-.551-1.566-2.547-.551-2.582,4.871-.258,9.741-.482,14.612-.723l-14.9-17.211C226.645,186.464,227.3,185.19,228.28,185.758Z" transform="translate(101.404 89.111)" fill="#3c3970"/>
    <path id="Path_850" data-name="Path 850" d="M189.511,179.291a1.893,1.893,0,0,1,.465.4q9.242,10.137,17.778,21.272l12.168-1.893a.9.9,0,0,1,.551.12c.895.516,1.48,2.461.516,2.6l-11.273,1.721q5.886,7.779,11.393,15.989c.843,1.274,0,2.065-.826,1.549a2.359,2.359,0,0,1-.688-.688q-5.7-8.5-11.841-16.539l-16.35,2.616a.9.9,0,0,1-.551-.12c-.895-.516-1.48-2.461-.516-2.616l15.352-2.427q-8.123-10.481-16.883-20.067C187.79,180,188.41,178.706,189.511,179.291Z" transform="translate(73.378 84.443)" fill="#3c3970"/>
    <path id="Path_851" data-name="Path 851" d="M97.25,52.49v.017h0Z" transform="translate(70.121 37.848)" fill="none"/>
    <path id="Path_852" data-name="Path 852" d="M137.76,78.54Z" transform="translate(36.943 11.901)" fill="none"/>
    <path id="Path_853" data-name="Path 853" d="M148.463,98.653h0l1.05-.516A26.694,26.694,0,0,0,154.47,94.5h0l.585-.585.465-.447.189-.207c.241-.241.465-.5.706-.757l.482-.534.413-.5a38.417,38.417,0,0,0,2.341-3.1l.1-.155c.224-.31.413-.637.62-.947l.361-.585c.12-.189.224-.379.327-.568l.654-1.153v-.138l.723-1.428.43-.947.344-.792.344-.843c.155-.4.293-.774.43-1.17a30.411,30.411,0,0,0,1.721-7.934,1.308,1.308,0,0,1,0-.258V69.05a8.364,8.364,0,0,0-3.253-6.609,6.093,6.093,0,0,0-3.253-.654h-.792l-.568.1h-.4a16.4,16.4,0,0,0-3.442,1.377l-.43.241-.534.31-.654.43-.258.189a31.478,31.478,0,0,0-6.643,6.368l-.31.4c-.4.516-.774,1.033-1.153,1.583l-.465.671v.086l-.895,1.428-.706,1.256-.379.723h0c-.654,1.291-1.2,2.564-1.721,3.786-.172.482-.344.964-.516,1.411a32.027,32.027,0,0,0-1.532,8.3c0,.74.1,1.48.12,2.22a12.3,12.3,0,0,0,.706,3.046l.1.275.138.293.138.275a5.869,5.869,0,0,0,2.134,2.375,3.874,3.874,0,0,0,.774.327h.12a7.091,7.091,0,0,0,2.857.241h.4l.637-.138h.31a1.377,1.377,0,0,1,1.05-.327A5.007,5.007,0,0,0,148.463,98.653Z" transform="translate(36.979 -0.191)" fill="none"/>
    <path id="Path_854" data-name="Path 854" d="M138.76,73.482V73.43Z" transform="translate(37.664 8.13)" fill="none"/>
    <path id="Path_855" data-name="Path 855" d="M149.13,57.57Z" transform="translate(45.141 -3.219)" fill="#fff"/>
    <path id="Path_856" data-name="Path 856" d="M133.51,78.551V78.31" transform="translate(33.879 11.735)" fill="none" stroke="#fff" stroke-linecap="round" stroke-linejoin="round"/>
    <path id="Path_857" data-name="Path 857" d="M138.76,73.482V73.43Z" transform="translate(37.664 8.13)" fill="none"/>
    <path id="Path_858" data-name="Path 858" d="M97.25,52.49v.017h0Z" transform="translate(70.121 37.848)" fill="none"/>
    <path id="Path_859" data-name="Path 859" d="M137.76,78.54Z" transform="translate(36.943 11.901)" fill="none"/>
    <path id="Path_860" data-name="Path 860" d="M145.911,82.669a4.389,4.389,0,0,0-1.91-.637,2.461,2.461,0,0,0-1.721.551,3.442,3.442,0,0,0-1.084,2.805,10.447,10.447,0,0,0,4.75,8.209,4.51,4.51,0,0,0,1.566.585,2.513,2.513,0,0,0,2.409-.74,3.838,3.838,0,0,0,.792-2.564A10.447,10.447,0,0,0,145.911,82.669Z" transform="translate(39.411 14.415)" fill="#a34262"/>
    <path id="Path_861" data-name="Path 861" d="M175.965,71.009a11.789,11.789,0,0,0-.31-2.065h0v-.258h0l-.1-.465v-.189h0v-.585a4.837,4.837,0,0,0-.172-.534v-.207h0l-.155-.413a12.874,12.874,0,0,0-6.471-7.659l-.275-.138-.189-.086h-.361a10.6,10.6,0,0,0-1.222-.43H165.69l-.757-.12h-4.285l-.895.172h-.138a12.3,12.3,0,0,0-1.824.5h-.361a13.976,13.976,0,0,0-3.029,1.291,35.522,35.522,0,0,0-13.235,11.514l-.155.224c0,.12-.172.241-.241.361l-.4.585-.482.774h0l-.482.774-.086.155-.5.861-.275.516h0l-.465.843-.172.31a37.757,37.757,0,0,0-2.272,5.163,26.987,26.987,0,0,0-1.532,5.972c-.086.482-.172,1-.224,1.463a2.686,2.686,0,0,1-.1.809c-.1.361,0,.585-.086.895v.1c0,.585-.086,1.256-.086,2.031h0v1.566h0v.516a3.774,3.774,0,0,0,.1.981h0a.292.292,0,0,0,0,.12h0v1.033a.292.292,0,0,0,0,.12h0a1.516,1.516,0,0,0,.1.568.5.5,0,0,1,0,.155v.138a17.208,17.208,0,0,0,.534,1.893,1.343,1.343,0,0,0,0,.241h0a1.8,1.8,0,0,0,.224.62v.258h0v.293q.1.258.207.465h0v.1l.4.74.207.344.12.207a12.7,12.7,0,0,0,2.375,2.84,11.669,11.669,0,0,0,5.335,2.754l.465.1a15.128,15.128,0,0,0,7.056-.327l1-.224a1.428,1.428,0,0,0,1.411-.447,2.134,2.134,0,0,0,.482-1.5,6.2,6.2,0,0,0-2.805-4.853,2.616,2.616,0,0,0-1.119-.379,1.377,1.377,0,0,0-1.05.327h-.31l-.637.138h-.4a7.091,7.091,0,0,1-2.857-.241h-.12a3.872,3.872,0,0,1-.774-.327,5.869,5.869,0,0,1-2.134-2.375l-.138-.275-.138-.293-.1-.275a12.306,12.306,0,0,1-.706-3.046c0-.74-.12-1.48-.12-2.22a32.028,32.028,0,0,1,1.532-8.3c.172-.447.344-.929.516-1.411a36.148,36.148,0,0,1,1.721-3.786h0l.379-.723.706-1.256.895-1.428v-.086l.465-.671c.379-.551.757-1.067,1.153-1.583l.31-.4a31.478,31.478,0,0,1,6.643-6.368l.258-.189.654-.43.534-.31.43-.241a16.4,16.4,0,0,1,3.442-1.377h.4l.568-.1h.792a6.092,6.092,0,0,1,3.253.654,7.624,7.624,0,0,1,3.063,5.318l7.831,4.509a12.444,12.444,0,0,0,.207-3.735ZM140.752,93.5Zm1.721-8.881h0v0Z" transform="translate(33.951 -3.01)" fill="#c7d2d7"/>
    <path id="Path_862" data-name="Path 862" d="M174.987,99.409a4.87,4.87,0,0,0-1.928-.637,2.427,2.427,0,0,0-1.721.568,3.442,3.442,0,0,0-1.084,2.788,10.43,10.43,0,0,0,4.733,8.227,4.51,4.51,0,0,0,1.566.585,2.461,2.461,0,0,0,2.392-.74,3.786,3.786,0,0,0,.809-2.564,10.481,10.481,0,0,0-4.767-8.227Z" transform="translate(60.365 26.486)" fill="#a34262"/>
    <path id="Path_863" data-name="Path 863" d="M205.04,87.766a11.97,11.97,0,0,0-.31-2.082h0v-.241h0l-.1-.447v-.189h0v-.155a2.091,2.091,0,0,0-.086-.31v-.12a4.822,4.822,0,0,0-.155-.534h0a3.154,3.154,0,0,0-.138-.43,12.925,12.925,0,0,0-6.729-7.968l-.293-.138h-.447a10.6,10.6,0,0,0-1.222-.43h-1.325l-.74-.12h-2.909l-.774.086h-.6l-.895.155h-.155a13.042,13.042,0,0,0-1.807.5h-.361a13.629,13.629,0,0,0-3.029,1.291,35.471,35.471,0,0,0-12.822,11.445l-.155.241c-.086.12-.172.241-.241.361l-.4.585c-.189.293-.344.534-.482.774h0l-.465.774-.086.138-.5.878-.293.516h0l-.465.843a2.991,2.991,0,0,0-.172.327,35.572,35.572,0,0,0-2.272,5.163,27.362,27.362,0,0,0-1.532,5.989c-.086.482-.172,1-.241,1.463v.792a8.178,8.178,0,0,0-.086.912h0c0,.585-.086,1.274-.1,2.048h0v1h0v.551h0v.534a4.5,4.5,0,0,0,.086.981v1.239a1.1,1.1,0,0,1,0,.12h0a1.516,1.516,0,0,0,.1.568.5.5,0,0,1,0,.155v.12a16.471,16.471,0,0,0,.534,1.91v.224h0l.241.62v.1a1.011,1.011,0,0,1,0,.138h0l.086.189v.1l.207.447v.1a6.111,6.111,0,0,0,.4.723,2.274,2.274,0,0,0,.207.344s.086.155.12.224a12.7,12.7,0,0,0,2.375,2.84,11.755,11.755,0,0,0,5.335,2.754l.465.1a15.076,15.076,0,0,0,7.039-.344,4.3,4.3,0,0,0,1.015-.224,1.411,1.411,0,0,0,1.411-.43,2.272,2.272,0,0,0,.482-1.515,6.179,6.179,0,0,0-2.805-4.836,2.41,2.41,0,0,0-1.119-.379,1.429,1.429,0,0,0-1.067.327h-.293l-.637.12H176.5a6.713,6.713,0,0,1-2.84-.258h-.12a8.048,8.048,0,0,1-.774-.327,5.869,5.869,0,0,1-2.134-2.375l-.138-.275-.138-.31-.1-.258a12.254,12.254,0,0,1-.706-3.063c0-.723-.12-1.463-.12-2.2a32.028,32.028,0,0,1,1.532-8.3c.155-.465.344-.947.516-1.411A39.579,39.579,0,0,1,173.2,96.13h0l.379-.723.706-1.256.895-1.446h0l.465-.688c.379-.534.757-1.05,1.153-1.566l.31-.4a31.958,31.958,0,0,1,6.626-6.385l.258-.172.671-.43.534-.31.43-.258a15.9,15.9,0,0,1,3.442-1.36h.4l.551-.1h.792a6.3,6.3,0,0,1,3.253.671,7.59,7.59,0,0,1,3.494,5.628l7.831,4.509a12.443,12.443,0,0,0-.344-4.079Zm-35.213,22.477Zm1.721-8.881h0v0Z" transform="translate(54.89 9.06)" fill="#c7d2d7"/>
    <path id="Path_864" data-name="Path 864" d="M203.973,116.139a4.8,4.8,0,0,0-1.91-.637,2.461,2.461,0,0,0-1.721.568,3.442,3.442,0,0,0-1.067,2.788,10.43,10.43,0,0,0,4.75,8.227,4.509,4.509,0,0,0,1.566.585,2.461,2.461,0,0,0,2.392-.74,3.786,3.786,0,0,0,.809-2.564,10.5,10.5,0,0,0-4.819-8.227Z" transform="translate(81.29 38.55)" fill="#a34262"/>
    <path id="Path_865" data-name="Path 865" d="M233.934,104.538a20.128,20.128,0,0,0-.293-2.082h0v-.241h0l-.1-.447v-.189h0a.5.5,0,0,0,0-.155,2.083,2.083,0,0,0-.086-.31v-.12l-.155-.534v-.086h0l-.138-.413a12.925,12.925,0,0,0-6.678-7.951l-.293-.138h-.465a10.6,10.6,0,0,0-1.222-.43h-1.067l-.757-.12H218.41l-.895.155h-.155a13.042,13.042,0,0,0-1.807.5h-.361a14.628,14.628,0,0,0-3.029,1.308,35.333,35.333,0,0,0-12.719,11.789l-.155.241-.258.361c-.12.189-.258.379-.379.585s-.344.534-.5.774h0c-.241.379-.4.654-.465.774l-.086.138-.5.878c-.1.155-.189.344-.293.5h0l-.465.843a2.993,2.993,0,0,0-.172.327,35.582,35.582,0,0,0-2.272,5.163,27.123,27.123,0,0,0-1.532,5.989c-.1.482-.172,1-.241,1.463a2.588,2.588,0,0,1-.1.792,2.7,2.7,0,0,0,0,.912h0c0,.585-.086,1.274-.1,2.048h0v1h0v.551h0a5.142,5.142,0,0,0,0,.534,3.985,3.985,0,0,0,.086.981h0a.224.224,0,0,1,0,.1h0v1.033a.224.224,0,0,1,0,.1h0a1.516,1.516,0,0,0,.1.568v.275c.155.723.344,1.36.516,1.91a.326.326,0,0,0,.086.224h0l.241.62v.1a1.021,1.021,0,0,0,0,.138h0l.086.189v.1a3.442,3.442,0,0,1,.207.447h0v.1c.1.224.241.482.379.723l.207.344.138.224a12.34,12.34,0,0,0,7.693,5.593l.465.1a15.128,15.128,0,0,0,7.056-.344,4.3,4.3,0,0,0,1.015-.224,1.446,1.446,0,0,0,1.411-.43,2.375,2.375,0,0,0,.482-1.515,6.179,6.179,0,0,0-2.805-4.836,2.41,2.41,0,0,0-1.136-.379,1.411,1.411,0,0,0-1.05.327h-.31l-.62.12h-.413a6.713,6.713,0,0,1-2.84-.258h-.12l-.792-.327a5.99,5.99,0,0,1-2.134-2.375.277.277,0,0,0-.12-.275,2.445,2.445,0,0,1-.138-.31l-.1-.258a12.253,12.253,0,0,1-.706-3.063c0-.723-.12-1.463-.12-2.2a30.633,30.633,0,0,1,1.532-8.3c.155-.465.327-.947.516-1.411a39.579,39.579,0,0,1,1.721-3.786h0l.379-.723.706-1.256.895-1.446h0l.465-.688c.379-.534.757-1.05,1.153-1.566l.31-.413a32.3,32.3,0,0,1,6.626-6.368l.258-.172.671-.43.534-.327.43-.241A15.9,15.9,0,0,1,218.324,98h.4l.551-.1h.792a6.3,6.3,0,0,1,3.253.671,7.59,7.59,0,0,1,3.167,5.456l7.831,4.509A11.909,11.909,0,0,0,233.934,104.538Zm-35.2,22.374Zm1.721-8.881h0v0Z" transform="translate(75.992 21.116)" fill="#c7d2d7"/>
    <path id="Path_866" data-name="Path 866" d="M233.072,132.9a4.32,4.32,0,0,0-1.91-.637,2.461,2.461,0,0,0-1.721.551,3.562,3.562,0,0,0-1.067,2.805,10.481,10.481,0,0,0,4.733,8.227,4.973,4.973,0,0,0,1.566.568,2.478,2.478,0,0,0,2.409-.74,3.838,3.838,0,0,0,.809-2.564,10.464,10.464,0,0,0-4.819-8.209Z" transform="translate(102.274 50.634)" fill="#a34262"/>
    <path id="Path_867" data-name="Path 867" d="M262.871,121.206a19.49,19.49,0,0,0-.293-2.082h0v-.258h0l-.1-.465v-.189h0v-.155a.5.5,0,0,0-.086-.31v-.12l-.155-.534v-.086h0l-.138-.413a12.874,12.874,0,0,0-6.471-7.659l-.293-.138-.172-.086h-.293c-.447-.172-.861-.327-1.222-.43h-.964l-.757-.12h-4.268l-.895.172h-.155a11.846,11.846,0,0,0-1.807.516h-.379a14.061,14.061,0,0,0-3.046,1.291,35.333,35.333,0,0,0-12.7,11.806l-.155.224-.258.361-.379.585-.5.774h0l-.465.792-.086.138c-.172.275-.344.568-.5.861l-.293.516h0c-.172.275-.327.551-.482.843a2.784,2.784,0,0,1-.172.31,39.979,39.979,0,0,0-2.272,5.163,28.173,28.173,0,0,0-1.514,5.972c-.1.482-.189,1-.241,1.463a2.687,2.687,0,0,1-.1.809,2.6,2.6,0,0,0,0,.895v.1c0,.585-.086,1.274-.1,2.031h0v1h0v.62a4.881,4.881,0,0,0,0,.516,3.986,3.986,0,0,0,.086.981h0v.12h0v1.033a.291.291,0,0,1,0,.12h0l.1.568v.293a16.323,16.323,0,0,0,.516,1.893l.086.241h0a2.085,2.085,0,0,0,.241.637v.241h0v.293l.207.465h0c.1.224.241.482.379.74l.207.344a2.153,2.153,0,0,0,.138.207,12.2,12.2,0,0,0,2.358,2.84,11.755,11.755,0,0,0,5.335,2.754l.465.1a15.128,15.128,0,0,0,6.833-.275l1-.224a1.5,1.5,0,0,0,1.428-.43,2.306,2.306,0,0,0,.465-1.515,6.127,6.127,0,0,0-2.788-4.853,3.046,3.046,0,0,0-1.136-.379,1.463,1.463,0,0,0-1.05.327h-.31l-.62.12h-.413a7.107,7.107,0,0,1-2.857-.241h-.12a4.96,4.96,0,0,1-.774-.327,5.886,5.886,0,0,1-2.134-2.375.287.287,0,0,0-.138-.275c-.138-.1-.086-.189-.12-.293l-.12-.275a12.856,12.856,0,0,1-.688-3.046c0-.74-.138-1.48-.12-2.2a30.634,30.634,0,0,1,1.532-8.313l.5-1.411a39.8,39.8,0,0,1,1.721-3.786h0l.379-.706.706-1.274.895-1.428h0l.465-.671c.361-.534.757-1.067,1.136-1.583a3.637,3.637,0,0,0,.327-.4,31.857,31.857,0,0,1,6.626-6.368l.258-.172.671-.43.534-.327a3.44,3.44,0,0,1,.43-.241,16.023,16.023,0,0,1,3.442-1.377h.4l.551-.1h.809a6.024,6.024,0,0,1,3.236.654,7.59,7.59,0,0,1,3.081,5.335l7.831,4.509a12.324,12.324,0,0,0-.258-4.234Zm-35.2,22.477ZM229.4,134.8h0v0Z" transform="translate(97.069 33.259)" fill="#c7d2d7"/>
    <path id="Path_868" data-name="Path 868" d="M293.406,348.2,511,473.836a9.1,9.1,0,0,0,9.036,0l10.86-6.282a3.614,3.614,0,0,0,0-6.265L312.819,335.945a9.035,9.035,0,0,0-9.018,0l-10.326,6.006a3.6,3.6,0,0,0-.069,6.247Z" transform="translate(147.888 196.634)" fill="#455a64" opacity="0.2"/>
    <path id="Path_869" data-name="Path 869" d="M291.946,81.467h0c1.48-5.163,12.047-15.042,22.374-14.835a9.053,9.053,0,0,1,2.943.585L520.622,182.906a19.74,19.74,0,0,1,9.827,16.9V639.655c0,11.2-12.925,21.909-25.059,16.763h0a3.441,3.441,0,0,1-.792-.31L301.24,540.161a19.465,19.465,0,0,1-9.81-16.9V83.584a4.7,4.7,0,0,1,.516-2.117Z" transform="translate(147.747 3.312)" fill="#5e72ac"/>
    <path id="Path_870" data-name="Path 870" d="M498.082,219.8a9.707,9.707,0,0,0-4.922-8.45L304.343,103.953a4.871,4.871,0,0,0-7.263,4.234V462.861a9.776,9.776,0,0,0,4.905,8.468L490.8,578.912a4.853,4.853,0,0,0,7.28-4.217Z" transform="translate(151.821 29.773)" fill="#132d46"/>
    <path id="Path_871" data-name="Path 871" d="M440.849,147.569V587.435c0,11.2-12.925,21.909-25.059,16.763h0a4.836,4.836,0,0,0,6.488-4.526V159.737A19.38,19.38,0,0,0,418.991,149L438.9,139.05a19.447,19.447,0,0,1,1.945,8.519Z" transform="translate(237.417 55.532)" fill="#4d578f"/>
    <path id="Path_872" data-name="Path 872" d="M314.173,66.621a9.053,9.053,0,0,1,2.943.585L520.475,182.9a19.31,19.31,0,0,1,7.814,8.382l-19.913,9.948a19.4,19.4,0,0,0-6.54-6.179L298.477,79.323a4.836,4.836,0,0,0-6.747,2.117h0C293.193,76.276,303.709,66.415,314.173,66.621Z" transform="translate(147.963 3.305)" fill="#fff" opacity="0.2"/>
    <path id="Path_873" data-name="Path 873" d="M342.006,116.381c-1.428-.826-2.616-.189-2.616,1.446a5.8,5.8,0,0,0,2.6,4.509l39.894,23.028c1.428.826,2.582.138,2.582-1.515a5.593,5.593,0,0,0-2.564-4.44Z" transform="translate(182.329 38.926)" fill="#3c3970"/>
    <path id="Path_874" data-name="Path 874" d="M371.139,133.2c-1.428-.826-2.582-.172-2.6,1.463a5.731,5.731,0,0,0,2.582,4.492c1.428.826,2.6.155,2.616-1.5A5.714,5.714,0,0,0,371.139,133.2Z" transform="translate(203.347 51.056)" fill="#3c3970"/>
    <path id="Path_875" data-name="Path 875" d="M357.373,114.592c-2.857-1.721-5.163-.344-5.163,2.943a11.342,11.342,0,0,0,5.163,8.949c2.84,1.721,5.163.31,5.163-2.977A11.411,11.411,0,0,0,357.373,114.592Z" transform="translate(191.572 37.36)" fill="#3c3970"/>
    <path id="Path_876" data-name="Path 876" d="M359.606,355.5c-5.817-3.356-10.5-.688-10.516,5.989a23.148,23.148,0,0,0,10.447,18.243c5.8,3.356,10.619.62,10.636-6.058A23.131,23.131,0,0,0,359.606,355.5Z" transform="translate(189.323 210.557)" fill="#3c3970"/>
    <path id="Path_877" data-name="Path 877" d="M348.021,166.346a2.014,2.014,0,0,0-1.015-1.721l-39.068-22.219a1,1,0,0,0-1.5.861v44.3a1.962,1.962,0,0,0,1.015,1.721l39.068,22.27a1,1,0,0,0,1.5-.878Z" transform="translate(158.57 57.855)" fill="#fff"/>
    <path id="Path_878" data-name="Path 878" d="M412.616,197.947,303.14,134.75v6.9l109.476,63.214Z" transform="translate(218.579 97.162)" fill="#01c38d"/>
    <path id="Path_879" data-name="Path 879" d="M412.616,205.3,303.14,142.09v6.9l109.476,63.214Z" transform="translate(218.579 102.454)" fill="#01c38d"/>
    <path id="Path_880" data-name="Path 880" d="M412.616,212.637,303.14,149.44v6.9l109.476,63.214Z" transform="translate(218.579 107.754)" fill="#01c38d"/>
    <path id="Path_881" data-name="Path 881" d="M303.14,156.78v6.9l38.138,22.029v-6.919Z" transform="translate(218.579 113.046)" fill="#01c38d"/>
    <path id="Path_882" data-name="Path 882" d="M348.021,207.8a2.014,2.014,0,0,0-1.015-1.721l-39.068-22.236a1,1,0,0,0-1.5.878v44.231a1.979,1.979,0,0,0,1.015,1.721l39.068,22.374a1,1,0,0,0,1.5-.878Z" transform="translate(158.57 87.736)" fill="#fff"/>
    <path id="Path_883" data-name="Path 883" d="M412.616,239.4,303.14,176.19v6.919l109.476,63.214Z" transform="translate(218.579 127.042)" fill="#01c38d"/>
    <path id="Path_884" data-name="Path 884" d="M412.616,246.737,303.14,183.54v6.9l109.476,63.214Z" transform="translate(218.579 132.342)" fill="#01c38d"/>
    <path id="Path_885" data-name="Path 885" d="M303.14,190.88V197.8l72.886,42.08v-6.9Z" transform="translate(218.579 137.634)" fill="#01c38d"/>
    <path id="Path_886" data-name="Path 886" d="M348.021,249.253a2.014,2.014,0,0,0-1.015-1.721L307.937,225.3a1,1,0,0,0-1.5.878v44.3a1.979,1.979,0,0,0,1.015,1.721l39.068,22.27a1,1,0,0,0,1.5-.878Z" transform="translate(158.57 117.623)" fill="#fff"/>
    <path id="Path_887" data-name="Path 887" d="M412.616,280.847,303.14,217.65v6.9l109.476,63.2Z" transform="translate(218.579 156.937)" fill="#01c38d"/>
    <path id="Path_888" data-name="Path 888" d="M412.616,288.187,303.14,224.99v6.9l109.476,63.214Z" transform="translate(218.579 162.229)" fill="#01c38d"/>
    <path id="Path_889" data-name="Path 889" d="M303.14,232.33v6.919l17.228,9.948v-6.9Z" transform="translate(218.579 167.522)" fill="#01c38d"/>
    <path id="Path_890" data-name="Path 890" d="M348.021,290.7a2.014,2.014,0,0,0-1.015-1.721l-39.068-22.236a1,1,0,0,0-1.5.878v44.3a2,2,0,0,0,1.015,1.721l39.068,22.27a1,1,0,0,0,1.5-.878Z" transform="translate(158.57 147.511)" fill="#fff"/>
    <path id="Path_891" data-name="Path 891" d="M412.616,322.3,303.14,259.09v6.919l109.476,63.2Z" transform="translate(218.579 186.817)" fill="#01c38d"/>
    <path id="Path_892" data-name="Path 892" d="M412.616,329.637,303.14,266.44v6.9l109.476,63.214Z" transform="translate(218.579 192.117)" fill="#01c38d"/>
    <path id="Path_893" data-name="Path 893" d="M412.616,336.994,303.14,273.78V280.7l109.476,63.2Z" transform="translate(218.579 197.409)" fill="#01c38d"/>
    <path id="Path_894" data-name="Path 894" d="M303.14,280.95v6.9l68.842,39.756v-6.9Z" transform="translate(218.579 202.579)" fill="#01c38d"/>
    <path id="Path_895" data-name="Path 895" d="M302.484,133.3l3.6,6.247-22.012,12.546-11.548-20,3.631-2.082,7.951,13.768Z" transform="translate(196.5 93.744)" fill="#01c38d"/>
    <path id="Path_896" data-name="Path 896" d="M302.484,174.747l3.6,6.247-22.012,12.546-11.548-20,3.631-2.082,7.951,13.768Z" transform="translate(196.5 123.631)" fill="#01c38d"/>
    <path id="Path_897" data-name="Path 897" d="M302.484,216.2l3.6,6.247-22.012,12.546-11.548-20,3.631-2.082,7.951,13.768Z" transform="translate(196.5 153.519)" fill="#01c38d"/>
    <path id="Path_898" data-name="Path 898" d="M302.484,257.647l3.6,6.247-22.012,12.547-11.548-20,3.631-2.082,7.951,13.768Z" transform="translate(196.5 183.407)" fill="#01c38d"/>
    <path id="Path_899" data-name="Path 899" d="M188.056,383.11,364.67,484.652a9.07,9.07,0,0,0,9.018,0l54.815-33.01a3.614,3.614,0,0,0,0-6.265L251.442,344.145a9,9,0,0,0-9,0l-54.385,32.7a3.6,3.6,0,0,0,0,6.265Z" transform="translate(71.891 202.547)" fill="#455a64" opacity="0.2"/>
    <path id="Path_900" data-name="Path 900" d="M287.527,369.474a10.017,10.017,0,0,0-8.4,3.442,3.2,3.2,0,0,0-.74,3.132h0l20.532,50.668a3.236,3.236,0,0,0,2.737,1.721,10.017,10.017,0,0,0,8.4-3.442,3.2,3.2,0,0,0,.74-3.132h0l-20.532-50.668h0a3.2,3.2,0,0,0-2.736-1.721Z" transform="translate(138.243 221.656)" fill="#3c3970"/>
    <path id="Path_901" data-name="Path 901" d="M220,404.021a9.982,9.982,0,0,1-8.4-3.442,3.15,3.15,0,0,1-.74-3.115h0L231.391,346.8a3.2,3.2,0,0,1,2.736-1.721,9.913,9.913,0,0,1,8.382,3.442,3.149,3.149,0,0,1,.74,3.132h0l-20.532,50.668h0a3.2,3.2,0,0,1-2.719,1.7Z" transform="translate(89.55 204.061)" fill="#3c3970"/>
    <path id="Path_902" data-name="Path 902" d="M278.4,260.271c-15.765-9.1-30.652-13.355-43.852-13.321-31.771.1-53.662,25.317-53.783,68.963-.172,61.751,43.25,136.961,97,167.992,38.982,22.511,72.663,15.489,88.307-13.51,5.92-11,9.276-25.162,9.328-42.114C375.652,366.512,332.127,291.3,278.4,260.271Z" transform="translate(67.948 133.333)" fill="#4d578f"/>
    <ellipse id="Ellipse_104" data-name="Ellipse 104" cx="79.461" cy="137.168" rx="79.461" ry="137.168" transform="matrix(0.865, -0.502, 0.502, 0.865, 222.157, 418.401)" fill="#fff"/>
    <path id="Path_903" data-name="Path 903" d="M212.682,235.233l-.052,16.849-4.871-2.823.034-16.849Z" transform="translate(149.805 167.58)" fill="#4d578f"/>
    <path id="Path_904" data-name="Path 904" d="M188,226.61l7.28,18.811-4.234.379-7.28-18.811Z" transform="translate(132.507 163.397)" fill="#4d578f"/>
    <path id="Path_905" data-name="Path 905" d="M169,235.84l12.667,15.73-2.478,3.459L166.52,239.282Z" transform="translate(120.069 170.053)" fill="#4d578f"/>
    <path id="Path_906" data-name="Path 906" d="M175.351,267.718l-.017,5.611-14.663-8.468.017-5.611Z" transform="translate(115.85 186.933)" fill="#4d578f"/>
    <path id="Path_907" data-name="Path 907" d="M179.089,289.95l2.444,6.282-12.719,1.084-2.444-6.265Z" transform="translate(119.96 209.069)" fill="#4d578f"/>
    <path id="Path_908" data-name="Path 908" d="M190.866,315.43l4.217,5.249-7.349,10.361-4.234-5.249Z" transform="translate(132.312 227.441)" fill="#4d578f"/>
    <path id="Path_909" data-name="Path 909" d="M212.392,336.6l-.034,16.832-4.888-2.823.052-16.832Z" transform="translate(149.596 240.672)" fill="#4d578f"/>
    <path id="Path_910" data-name="Path 910" d="M231.871,339.86l7.28,18.811-4.234.361-7.3-18.828Z" transform="translate(164.125 245.057)" fill="#4d578f"/>
    <path id="Path_911" data-name="Path 911" d="M245.224,330.62l12.667,15.748-2.444,3.459L242.78,334.062Z" transform="translate(175.056 238.394)" fill="#4d578f"/>
    <path id="Path_912" data-name="Path 912" d="M263.553,318.648l-.017,5.611-14.646-8.468.017-5.611Z" transform="translate(179.462 223.656)" fill="#4d578f"/>
    <path id="Path_913" data-name="Path 913" d="M255.629,283.38l2.427,6.265-12.719,1.084-2.427-6.265Z" transform="translate(175.15 204.332)" fill="#4d578f"/>
    <path id="Path_914" data-name="Path 914" d="M235.233,253.11l4.217,5.266-7.366,10.343-4.234-5.249Z" transform="translate(164.291 182.505)" fill="#4d578f"/>
    <path id="Path_915" data-name="Path 915" d="M249.016,321.06l28.053,68.119.637,7.315-5.163-6.678L244.49,321.7A5.37,5.37,0,0,0,249.016,321.06Z" transform="translate(113.901 186.771)" fill="#4d578f"/>
    <path id="Path_916" data-name="Path 916" d="M288.326,322.892l6.093,4.217-4.285,2.582L256.3,324.32v.688a9.876,9.876,0,0,1,0,1.033v.4a1.2,1.2,0,0,1-.086.551c-.086.172,0,.327-.12.5a2.219,2.219,0,0,0,0,.361,2.7,2.7,0,0,1-.207.516l-.086.241a5.471,5.471,0,0,1-.275.551v.138a3.923,3.923,0,0,1-.361.516,4.194,4.194,0,0,1-.482.551,6.092,6.092,0,0,1-.551.465,5.37,5.37,0,0,1-4.475.637,9.893,9.893,0,0,1-1.136-.4h-.189a11.647,11.647,0,0,1-1.239-.6,20.653,20.653,0,0,1-9.38-16.264c0-5.989,4.234-8.4,9.449-5.387a10.2,10.2,0,0,1,1.067.688l.31.224.74.585.327.293.706.654.275.275c.275.275.534.568.792.878a22.132,22.132,0,0,1,3.339,5.163Z" transform="translate(109.012 177.005)" fill="#01c38d"/>
    <path id="Path_917" data-name="Path 917" d="M250.356,319.252a8.777,8.777,0,0,0-3.993-6.884,3.012,3.012,0,0,0-2.6-.379h-.1l-.258.155-6.092,3.614h0a2.857,2.857,0,0,1,2.771.31,8.846,8.846,0,0,1,4.01,6.884,2.857,2.857,0,0,1-1.1,2.513h0l6.144-3.666h.086a2.857,2.857,0,0,0,1.136-2.547Z" transform="translate(108.724 180.129)" fill="#4d578f"/>
    <path id="Path_918" data-name="Path 918" d="M244.623,321.438a8.846,8.846,0,0,0-4.01-6.884,2.857,2.857,0,0,0-2.771-.31,2.771,2.771,0,0,0-1.256,2.6,8.846,8.846,0,0,0,4.01,6.884,2.771,2.771,0,0,0,2.926.224,2.857,2.857,0,0,0,1.1-2.513Z" transform="translate(108.192 181.694)" fill="#5d71ab"/>
    <path id="Path_919" data-name="Path 919" d="M390.294,316.694c-19.224-33.285-44.971-60.357-72.508-76.26-16.935-9.776-33.354-14.732-48.826-14.732a60.7,60.7,0,0,0-30.239,7.59h0l-.74.43-1.618.981L193.87,260.227a60.357,60.357,0,0,1,31.478-8.313c15.489,0,31.908,4.957,48.843,14.732,27.537,15.9,53.353,43.026,72.491,76.26s29.757,69.049,29.671,100.716c-.086,32.046-11.307,56.519-30.239,69.341l41.133-24.628.775-.465h.12c19.913-12.495,31.736-37.45,31.822-70.374C419.982,385.743,409.432,349.979,390.294,316.694Z" transform="translate(77.401 118.009)" fill="#4d578f"/>
    <path id="Path_920" data-name="Path 920" d="M360.375,331.925c-19.207-33.268-44.954-60.357-72.491-76.26-16.935-9.776-33.371-14.732-48.843-14.732a60.357,60.357,0,0,0-31.478,8.313l-.912.551-.138.1c-19.861,12.512-31.667,37.433-31.753,70.322,0,31.667,10.447,67.431,29.654,100.716s44.971,60.357,72.508,76.26c16.935,9.776,33.354,14.732,48.826,14.732a61.029,61.029,0,0,0,28.707-6.764h.138l5.163-3.115c18.932-12.822,30.153-37.3,30.239-69.341C390.132,400.973,379.6,365.21,360.375,331.925ZM282.085,488.248c-53.748-30.979-97.171-106.241-97-167.992.12-43.646,22.012-68.842,53.783-68.963,13.2,0,28.088,4.217,43.852,13.321,53.731,30.979,97.171,106.24,97,168.009,0,16.952-3.442,31.117-9.328,42.114-15.644,29.068-49.325,36.021-88.307,13.51Z" transform="translate(63.622 128.99)" fill="#5d71ab"/>
    <path id="Path_921" data-name="Path 921" d="M344.983,329.66l-43.715,25.231c.413,4.664.654,9.259.637,13.768A110.872,110.872,0,0,1,297,402.082l43.2-24.938a110.147,110.147,0,0,0,5.3-34.7C345.534,338.248,345.344,333.98,344.983,329.66Z" transform="translate(151.763 192.972)" opacity="0.2"/>
    <g id="Group_287" data-name="Group 287" transform="translate(356.566 362.058)" opacity="0.2">
      <path id="Path_922" data-name="Path 922" d="M287.885,236.36,243.43,262.021a184.307,184.307,0,0,1,36.366,30.79l44.231-25.54a184.635,184.635,0,0,0-36.142-30.91Z" transform="translate(-243.43 -236.36)" fill="#fff"/>
      <path id="Path_923" data-name="Path 923" d="M316.145,263.14,272,288.715q4.681,6.041,9.036,12.512l44.111-25.471Q320.792,269.2,316.145,263.14Z" transform="translate(-222.83 -217.05)" fill="#fff"/>
    </g>
    <path id="Path_924" data-name="Path 924" d="M71.139,352.637,229.475,444.2a7.5,7.5,0,0,0,7.555,0l9.087-5.163a3.012,3.012,0,0,0,0-5.163L88.143,342.827l-23.785-6.884a1.721,1.721,0,0,0-2.031,2.7Z" transform="translate(-17.77 197.376)" fill="#455a64" opacity="0.2"/>
    <path id="Path_925" data-name="Path 925" d="M68.131,330.557l-5.06-.895A1.067,1.067,0,0,0,62,331.383l3.442,5.163a5.421,5.421,0,0,1,2.685-5.989Z" transform="translate(-17.86 192.952)" fill="#4d578f"/>
    <path id="Path_926" data-name="Path 926" d="M83.98,333.2,66.614,330.17A5.421,5.421,0,0,0,64,336.108l9.655,14.233Z" transform="translate(-16.343 193.339)" fill="#e5b7a1"/>
    <g id="Group_288" data-name="Group 288" transform="translate(57.553 526.659)">
      <path id="Path_927" data-name="Path 927" d="M167.967,386.035c4.148-2.41,7.521-.482,7.538,4.285a16.5,16.5,0,0,1-7.487,12.977c-4.148,2.392-7.521.465-7.538-4.3a16.47,16.47,0,0,1,7.487-12.96Z" transform="translate(-4.228 -293.787)" fill="#e5b7a1"/>
      <path id="Path_928" data-name="Path 928" d="M141.027,366.92l-12.288-7.177L81.65,332.379h0l-.361-.189h-.327L80.549,332H78.174l-.4.1h0l-.465.172h-.172l-.189.086-.688.361-.706.448-.241.172-.465.344-.258.224-.43.361a3.2,3.2,0,0,0-.241.241l-.172.155-.155.172c-.172.172-.344.344-.5.534l-.155.172-.138.138-.293.361a2.307,2.307,0,0,1-.189.241.757.757,0,0,0-.138.189,1.514,1.514,0,0,0-.207.293l-.155.189-.224.344-.155.207v.1l-.4.637h0v.138l-.258.448a.93.93,0,0,1-.12.224l-.1.224-.1.207c0,.172-.172.344-.241.516v.1h0c-.1.224-.189.447-.275.688v.361c0,.12-.086.224-.12.344a.645.645,0,0,0,0,.258,2.081,2.081,0,0,0,0,.31v.534a3.25,3.25,0,0,1,0,.4s0,.086,0,.12v.275l-.1.6v.172a2.585,2.585,0,0,0,0,.379,1.326,1.326,0,0,0,0,.258q0,.413,0,.826a5.163,5.163,0,0,0,2.186,4.819l47.467,27.537,11.6,6.729,98.1,57.018a5.163,5.163,0,0,1-2.2-4.819V435.28l.1-.6v-.4l.1-.4a2.033,2.033,0,0,1,.138-.534c.052-.172,0-.207,0-.31l.207-.6.086-.241c.1-.275.224-.551.344-.826a.241.241,0,0,1,0-.1c.1-.241.224-.482.344-.723a1.432,1.432,0,0,1,.12-.224,6.408,6.408,0,0,1,.361-.671v-.138a7.145,7.145,0,0,1,.482-.775l.138-.206a5.946,5.946,0,0,1,.379-.533l.207-.293.327-.43.293-.361.293-.31.5-.534.327-.327.241-.241.43-.361.258-.224.465-.344.241-.172.706-.448.688-.361.189-.086.637-.258h0l.551-.138h2.2l.413.12h.12l.5.224Z" transform="translate(-69.691 -332)" fill="#5e72ac"/>
      <path id="Path_929" data-name="Path 929" d="M165.741,389.294c1.2-.688,2.169-.138,2.169,1.239a4.767,4.767,0,0,1-2.151,3.718c-1.188.688-2.151.138-2.169-1.222A4.767,4.767,0,0,1,165.741,389.294Z" transform="translate(-1.985 -290.902)" fill="#4d578f"/>
    </g>
  </g>
</svg>
