<svg xmlns="http://www.w3.org/2000/svg" width="159" height="29" viewBox="0 0 159 29">
  <g id="Group_240" data-name="Group 240" transform="translate(-199 -34)">
    <g id="infinity-symbol-svgrepo-com" transform="translate(199 -92.891)">
      <path id="Path_298" data-name="Path 298" d="M54.858,136.443a14.082,14.082,0,0,0-5.077-6.162,14.04,14.04,0,0,0-7.827-2.39,13.991,13.991,0,0,0-5.267,1.023c-.136.054-.263.108-.389.171a14.068,14.068,0,0,0-3.955,2.625,14.527,14.527,0,0,0-1.077,1.14c-.624.715-1.266,1.539-1.891,2.371-.126.171-.263.353-.389.525-.344.47-3.63,5.285-4.208,6.145-.29.434-.634.923-1,1.456-.081.118-.171.245-.262.371-.616.878-1.3,1.8-1.937,2.616-.316.407-.634.787-.9,1.1s-.534.588-.715.76a8.736,8.736,0,0,1-2.7,1.738,8.684,8.684,0,0,1-5.547.326,7.747,7.747,0,0,1-1.086-.38A8.7,8.7,0,0,1,5.71,144.47a8.945,8.945,0,0,1-.389-2.579A8.637,8.637,0,0,1,9.149,134.7,8.776,8.776,0,0,1,14,133.213a8.626,8.626,0,0,1,5.955,2.37c.181.172.435.444.715.761.489.57,1.068,1.3,1.647,2.072.226.308.452.615.679.931.869-1.266,2.389-3.493,3.185-4.642l-.407-.543c-.362-.462-.725-.9-1.086-1.312s-.706-.787-1.077-1.14A13.939,13.939,0,0,0,14,127.891a13.994,13.994,0,0,0-11.611,6.172,14.287,14.287,0,0,0-1.764,3.665A14.012,14.012,0,0,0,6.162,153.5a14.346,14.346,0,0,0,3.675,1.764,14.121,14.121,0,0,0,9.429-.4,14.246,14.246,0,0,0,4.335-2.787l.009-.009a14.6,14.6,0,0,0,1.077-1.141c.624-.715,1.266-1.538,1.891-2.37.126-.172.262-.345.389-.516.344-.48,4.842-7.077,5.212-7.611.082-.118.172-.244.262-.371.616-.869,1.3-1.8,1.937-2.615.316-.407.634-.787.9-1.1s.534-.589.715-.761a8.9,8.9,0,0,1,2.7-1.737c.245-.1.489-.18.742-.263a9.19,9.19,0,0,1,2.516-.37,8.673,8.673,0,0,1,4.85,15.872,8.3,8.3,0,0,1-2.271,1.086,8.626,8.626,0,0,1-5.837-.235A8.736,8.736,0,0,1,36,148.2c-.181-.172-.435-.444-.715-.76-.489-.561-1.068-1.3-1.647-2.072-.235-.308-.461-.625-.688-.941-.072.109-.145.217-.226.335-1.493,2.19-2.435,3.575-2.95,4.325.135.181.271.354.407.535.362.461.725.9,1.086,1.311a13.131,13.131,0,0,0,1.077,1.141,13.932,13.932,0,0,0,9.611,3.819,13.951,13.951,0,0,0,11.611-6.172,13.851,13.851,0,0,0,1.764-3.665,14.131,14.131,0,0,0-.47-9.611Z" transform="translate(0 0)" fill="#fff"/>
    </g>
    <text id="Kreight" transform="translate(271 57)" fill="#fff" font-size="24" font-family="Inter-Bold, Inter" font-weight="700"><tspan x="0" y="0">Kreight</tspan></text>
  </g>
</svg>
