<svg xmlns="http://www.w3.org/2000/svg" width="108.899" height="54.495" viewBox="0 0 108.899 54.495">
  <g id="infinity-symbol-svgrepo-com" transform="translate(0 -127.891)">
    <path id="Path_298" data-name="Path 298" d="M106.768,144.536a27.408,27.408,0,0,0-9.881-11.994,27.326,27.326,0,0,0-15.234-4.651A27.23,27.23,0,0,0,71.4,129.884c-.265.1-.511.21-.757.334a27.379,27.379,0,0,0-7.7,5.108,28.272,28.272,0,0,0-2.1,2.219c-1.214,1.391-2.465,2.995-3.681,4.615-.246.333-.511.686-.757,1.022-.669.915-7.064,10.285-8.191,11.959-.564.844-1.233,1.8-1.956,2.835-.158.229-.333.476-.509.722-1.2,1.708-2.537,3.505-3.77,5.091-.616.791-1.233,1.531-1.761,2.148-.545.633-1.039,1.144-1.391,1.479a17,17,0,0,1-5.248,3.382,16.9,16.9,0,0,1-10.8.634,15.073,15.073,0,0,1-2.114-.74,16.94,16.94,0,0,1-9.565-10.533,17.41,17.41,0,0,1-.757-5.019,16.81,16.81,0,0,1,7.451-14,17.081,17.081,0,0,1,9.439-2.888,16.789,16.789,0,0,1,11.589,4.613c.353.335.846.863,1.391,1.481.951,1.109,2.078,2.535,3.206,4.034.44.6.881,1.2,1.321,1.813,1.691-2.465,4.649-6.8,6.2-9.035-.263-.353-.528-.7-.791-1.056-.705-.9-1.41-1.761-2.114-2.554-.705-.81-1.374-1.532-2.1-2.219a27.129,27.129,0,0,0-18.7-7.434A27.236,27.236,0,0,0,4.649,139.9a27.807,27.807,0,0,0-3.433,7.133,27.271,27.271,0,0,0,10.778,30.7,27.921,27.921,0,0,0,7.152,3.433A27.483,27.483,0,0,0,37.5,180.4a27.726,27.726,0,0,0,8.437-5.425l.017-.017a28.409,28.409,0,0,0,2.1-2.221c1.214-1.391,2.465-2.993,3.681-4.613.246-.335.511-.671.757-1,.669-.934,9.424-13.774,10.145-14.812.16-.229.335-.475.511-.722,1.2-1.691,2.537-3.505,3.77-5.089.616-.793,1.233-1.533,1.761-2.148.545-.635,1.039-1.146,1.391-1.481a17.316,17.316,0,0,1,5.248-3.381c.476-.193.951-.351,1.445-.511a17.884,17.884,0,0,1,4.9-.721,16.88,16.88,0,0,1,9.439,30.891,16.154,16.154,0,0,1-4.42,2.114,16.789,16.789,0,0,1-11.361-.457,17,17,0,0,1-5.248-3.382c-.353-.335-.846-.863-1.391-1.479-.951-1.092-2.079-2.537-3.206-4.033-.457-.6-.9-1.216-1.338-1.832-.141.211-.282.423-.44.652-2.907,4.262-4.739,6.957-5.741,8.418.263.353.528.688.791,1.041.705.9,1.41,1.761,2.114,2.552a25.554,25.554,0,0,0,2.1,2.221,27.115,27.115,0,0,0,18.7,7.432,27.152,27.152,0,0,0,22.6-12.012,26.958,26.958,0,0,0,3.433-7.133,27.5,27.5,0,0,0-.915-18.7Z" transform="translate(0 0)" fill="#fff"/>
  </g>
</svg>
