<svg xmlns="http://www.w3.org/2000/svg" width="90.713" height="104.488" viewBox="0 0 90.713 104.488">
  <g id="SolarMicrophone2Broken" transform="translate(-3.25)">
    <path id="Path_931" data-name="Path 931" d="M7,28.918a25.918,25.918,0,0,1,51.836,0V44.469A25.918,25.918,0,0,1,7,44.469Z" transform="translate(15.688)" fill="none" stroke="#fff" stroke-width="6"/>
    <path id="Path_932" data-name="Path 932" d="M40.693,8H58.836M40.693,23.551H58.836M7,8H17.367M7,23.551H17.367M32.918,65.02V80.57" transform="translate(15.688 20.918)" fill="none" stroke="#fff" stroke-linecap="round" stroke-width="6"/>
    <path id="Path_933" data-name="Path 933" d="M93.963,13.138a3.888,3.888,0,0,0-7.775,0Zm-82.937,0a3.888,3.888,0,0,0-7.775,0ZM66.811,51.206a3.889,3.889,0,1,0,3.774,6.8ZM86.188,13.138v5.184h7.775V13.138ZM11.025,18.321V13.138H3.25v5.184ZM48.606,55.9A37.581,37.581,0,0,1,11.025,18.321H3.25A45.356,45.356,0,0,0,48.606,63.678ZM86.188,18.321A37.571,37.571,0,0,1,66.811,51.206l3.774,6.8A45.346,45.346,0,0,0,93.963,18.321Z" transform="translate(0 26.147)" fill="#fff"/>
  </g>
</svg>
