<svg xmlns="http://www.w3.org/2000/svg" width="96.145" height="96.145" viewBox="0 0 96.145 96.145">
  <g id="SolarRecordSquareBroken" transform="translate(1 1)">
    <path id="Path_945" data-name="Path 945" d="M64.094,20.768A11.268,11.268,0,1,1,52.826,9.5,11.268,11.268,0,0,1,64.094,20.768Zm-36.058,0A11.268,11.268,0,1,1,16.768,9.5,11.268,11.268,0,0,1,28.036,20.768Z" transform="translate(12.275 26.304)" fill="none" stroke="#fff" stroke-width="6"/>
    <path id="Path_946" data-name="Path 946" d="M29.044,58.341H65.1M92.145,47.073c0,21.247,0,31.871-6.6,38.469s-17.222,6.6-38.469,6.6-31.871,0-38.474-6.6S2,68.32,2,47.073,2,15.2,8.6,8.6,25.825,2,47.073,2,78.943,2,85.542,8.6c4.39,4.39,5.859,10.56,6.355,20.445" fill="none" stroke="#fff" stroke-linecap="round" stroke-width="6"/>
  </g>
</svg>
