<svg xmlns="http://www.w3.org/2000/svg" width="96.713" height="87.642" viewBox="0 0 96.713 87.642">
  <g id="SolarCameraBroken" transform="translate(1 0)">
    <ellipse id="Ellipse_106" data-name="Ellipse 106" cx="14" cy="13.5" rx="14" ry="13.5" transform="translate(33.357 34.821)" fill="none" stroke="#fff" stroke-width="6"/>
    <path id="Path_930" data-name="Path 930" d="M2,50.008c0-13.9,0-20.85,3.4-25.84a19.866,19.866,0,0,1,5.561-5.461c3.266-2.145,7.357-2.912,13.621-3.184a6.373,6.373,0,0,0,6.146-5.1A9.362,9.362,0,0,1,39.945,3H54.768a9.365,9.365,0,0,1,9.221,7.42,6.373,6.373,0,0,0,6.146,5.1c6.259.272,10.35,1.043,13.621,3.184a19.923,19.923,0,0,1,5.561,5.461c3.4,4.989,3.4,11.938,3.4,25.84s0,20.846-3.4,25.84a19.993,19.993,0,0,1-5.561,5.461c-5.085,3.334-12.165,3.334-26.321,3.334H37.278c-14.156,0-21.236,0-26.32-3.334A19.984,19.984,0,0,1,5.4,75.843a15.557,15.557,0,0,1-2.145-4.808M79.106,34.75H74.571" transform="translate(0 0)" fill="none" stroke="#fff" stroke-linecap="round" stroke-width="6"/>
  </g>
</svg>
