<svg xmlns="http://www.w3.org/2000/svg" width="89.303" height="89.303" viewBox="0 0 89.303 89.303">
  <g id="SolarVideoFramePlayHorizontalBroken" transform="translate(1 1)">
    <path id="Path_941" data-name="Path 941" d="M81.638,64.477H2.5M81.638,22.826H2.5M42.069,2V22.826m0,62.477V64.477M62.894,4.083V22.826m0,60.394V64.477M21.243,4.083V22.826m0,60.394V64.477M50.4,43.651c0-2.2-2.208-3.682-6.618-6.648-4.469-3-6.706-4.507-8.372-3.4s-1.67,4.082-1.67,10.05,0,8.947,1.666,10.05,3.907-.4,8.376-3.4C48.2,47.333,50.4,45.851,50.4,43.651Z" transform="translate(1.583)" fill="none" stroke="#fff" stroke-linecap="round" stroke-width="6"/>
    <path id="Path_942" data-name="Path 942" d="M2,43.651C2,24.017,2,14.2,8.1,8.1S24.017,2,43.651,2,73.1,2,79.2,8.1c3.4,3.4,4.907,7.955,5.573,14.728M85.3,43.651c0,19.634,0,29.452-6.1,35.549s-15.915,6.1-35.549,6.1S14.2,85.3,8.1,79.2c-3.4-3.4-4.9-7.955-5.569-14.724" fill="none" stroke="#fff" stroke-linecap="round" stroke-width="6"/>
  </g>
</svg>
