<svg xmlns="http://www.w3.org/2000/svg" width="62.374" height="98.442" viewBox="0 0 62.374 98.442">
  <g id="SolarWalkingRoundBroken" transform="translate(-5.455 1)">
    <circle id="Ellipse_107" data-name="Ellipse 107" cx="11.403" cy="11.403" r="11.403" transform="translate(23.355 2)" fill="none" stroke="#fff" stroke-width="6"/>
    <path id="Path_936" data-name="Path 936" d="M7,38.026l2.326-1.856A31.925,31.925,0,0,0,20.684,17.5" transform="translate(2.671 55.2)" fill="none" stroke="#fff" stroke-linecap="round" stroke-width="6"/>
    <path id="Path_937" data-name="Path 937" d="M28.637,28.261l3.407.338ZM32.345,41.22l-2.709,2.089Zm17.5,28.28a3.421,3.421,0,1,0,5.414-4.183ZM27.779,12.739,27.6,9.323Zm9.656.529-.488,3.384ZM56.183,27.723l-.561-3.375Zm8.785,2a3.422,3.422,0,0,0-1.122-6.751Zm-16-6.345L52.219,22.3ZM6.25,33.2a3.421,3.421,0,1,0,6.842,0ZM34.69,49.855A3.421,3.421,0,1,0,40.1,45.677Zm15.518,8.917a3.421,3.421,0,1,0-5.419,4.178ZM26.794,12.329l-1.56,15.591,6.805.684L33.6,13.013ZM30.2,9.25c-.812,0-1.692.027-2.6.078l.365,6.833q1.116-.065,2.235-.068Zm0,6.842a48.929,48.929,0,0,1,6.751.566l.976-6.774A56.461,56.461,0,0,0,30.2,9.25ZM56.744,31.1l8.224-1.368L63.846,22.98l-8.224,1.368Zm-19.8-14.441a11.171,11.171,0,0,1,8.781,7.809L52.219,22.3a18,18,0,0,0-14.3-12.42ZM27.6,9.328C14.98,10.012,6.25,21.15,6.25,33.2h6.842c0-9.013,6.459-16.58,14.87-17.036ZM45.728,24.466A9.9,9.9,0,0,0,56.744,31.1l-1.122-6.751a3.056,3.056,0,0,1-3.4-2.043ZM25.234,27.919c-.328,3.3-.639,5.852.059,8.311l6.577-1.884c-.255-.9-.214-1.916.169-5.747Zm9.82,11.212c-2.349-3.047-2.919-3.882-3.184-4.789L25.293,36.23c.7,2.454,2.317,4.456,4.342,7.079ZM29.64,43.309l5.049,6.545L40.1,45.677l-5.049-6.545ZM44.788,62.95,49.842,69.5l5.414-4.178-5.049-6.545Z" transform="translate(0 25.819)" fill="#fff"/>
  </g>
</svg>
